<svg width="640" height="320" viewBox="0 0 640 320" xmlns="http://www.w3.org/2000/svg"><mask id="satori_om-id"><rect x="0" y="0" width="640" height="320" fill="#fff"/></mask><rect x="0" y="0" width="640" height="320" fill="#fff"/><mask id="satori_om-id-0"><rect x="0" y="40" width="640" height="36" fill="#fff"/></mask><rect x="0" y="40" width="640" height="36" fill="#fff"/><mask id="satori_om-id-0-0"><rect x="93" y="40" width="132" height="36" fill="#fff"/></mask><path fill="black" d="M94.4 51.0L95.9 51.0L95.9 64.1L94.4 64.1L94.4 51.0ZM99.6 67.8L99.6 67.8Q99.2 67.8 98.9 67.7Q98.6 67.6 98.5 67.6L98.5 67.6L98.9 66.2Q99.5 66.4 99.9 66.4Q100.3 66.3 100.6 66.0Q101.0 65.6 101.2 64.9L101.2 64.9L101.5 64.1L97.9 54.3L99.5 54.3L102.2 62.1L102.3 62.1L105.0 54.3L106.7 54.3L102.5 65.5Q102.2 66.3 101.8 66.8Q101.4 67.3 100.9 67.5Q100.3 67.8 99.6 67.8ZM110.2 64.1L108.7 64.1L108.7 54.3L110.1 54.3L110.1 55.7L110.2 55.7Q110.5 55.0 111.2 54.6Q111.9 54.1 112.8 54.1L112.8 54.1Q113.0 54.1 113.2 54.1Q113.5 54.1 113.6 54.1L113.6 54.1L113.6 55.7Q113.5 55.6 113.2 55.6Q113.0 55.6 112.7 55.6L112.7 55.6Q111.9 55.6 111.4 55.9Q110.8 56.2 110.5 56.7Q110.2 57.2 110.2 57.9L110.2 57.9L110.2 64.1ZM116.9 64.1L115.4 64.1L115.4 54.3L116.9 54.3L116.9 64.1ZM116.1 52.6L116.1 52.6Q115.7 52.6 115.4 52.3Q115.1 52.0 115.1 51.6L115.1 51.6Q115.1 51.2 115.4 50.9Q115.7 50.6 116.1 50.6L116.1 50.6Q116.6 50.6 116.9 50.9Q117.2 51.2 117.2 51.6L117.2 51.6Q117.2 52.0 116.9 52.3Q116.6 52.6 116.1 52.6ZM123.6 64.3L123.6 64.3Q122.2 64.3 121.3 63.6Q120.3 63.0 119.7 61.8Q119.2 60.7 119.2 59.2L119.2 59.2Q119.2 57.7 119.7 56.6Q120.3 55.4 121.3 54.8Q122.3 54.1 123.6 54.1L123.6 54.1Q124.6 54.1 125.5 54.5Q126.3 54.9 126.8 55.6Q127.4 56.3 127.5 57.2L127.5 57.2L126.0 57.2Q125.8 56.5 125.2 56.0Q124.6 55.5 123.6 55.5L123.6 55.5Q122.7 55.5 122.1 55.9Q121.4 56.4 121.1 57.2Q120.7 58.1 120.7 59.2L120.7 59.2Q120.7 60.3 121.1 61.1Q121.4 62.0 122.1 62.5Q122.7 62.9 123.6 62.9L123.6 62.9Q124.2 62.9 124.7 62.7Q125.2 62.5 125.5 62.1Q125.8 61.7 126.0 61.2L126.0 61.2L127.5 61.2Q127.4 62.1 126.9 62.8Q126.4 63.5 125.5 63.9Q124.7 64.3 123.6 64.3ZM136.6 56.5L136.6 56.5L135.3 56.8Q135.2 56.5 134.9 56.2Q134.7 55.9 134.2 55.6Q133.8 55.4 133.2 55.4L133.2 55.4Q132.3 55.4 131.7 55.8Q131.1 56.3 131.1 56.9L131.1 56.9Q131.1 57.5 131.5 57.8Q131.9 58.1 132.8 58.3L132.8 58.3L134.2 58.7Q135.5 59.0 136.2 59.7Q136.8 60.3 136.8 61.3L136.8 61.3Q136.8 62.2 136.3 62.8Q135.9 63.5 135.0 63.9Q134.1 64.3 133.0 64.3L133.0 64.3Q131.5 64.3 130.5 63.6Q129.5 63.0 129.3 61.7L129.3 61.7L130.7 61.4Q130.9 62.2 131.5 62.6Q132.0 63.0 133.0 63.0L133.0 63.0Q134.0 63.0 134.6 62.5Q135.3 62.0 135.3 61.4L135.3 61.4Q135.3 60.9 134.9 60.6Q134.5 60.2 133.8 60.0L133.8 60.0L132.2 59.7Q130.8 59.3 130.2 58.7Q129.6 58.0 129.6 57.0L129.6 57.0Q129.6 56.1 130.0 55.5Q130.5 54.9 131.3 54.5Q132.1 54.1 133.2 54.1L133.2 54.1Q134.6 54.1 135.5 54.8Q136.3 55.4 136.6 56.5ZM140.2 64.2L140.2 64.2Q139.7 64.2 139.4 63.8Q139.0 63.5 139.0 63.0L139.0 63.0Q139.0 62.6 139.4 62.2Q139.7 61.9 140.2 61.9L140.2 61.9Q140.7 61.9 141.0 62.2Q141.3 62.6 141.3 63.0L141.3 63.0Q141.3 63.3 141.2 63.6Q141.0 63.9 140.8 64.0Q140.5 64.2 140.2 64.2ZM143.2 54.3L148.3 54.3L148.3 55.5L143.2 55.5L143.2 54.3ZM144.7 61.7L144.7 51.9L146.2 51.9L146.2 61.3Q146.2 61.9 146.4 62.2Q146.6 62.5 146.9 62.6Q147.2 62.7 147.5 62.7L147.5 62.7Q147.8 62.7 147.9 62.7Q148.1 62.7 148.2 62.7L148.2 62.7L148.5 64.0Q148.4 64.1 148.1 64.1Q147.8 64.2 147.4 64.2L147.4 64.2Q146.7 64.2 146.1 63.9Q145.5 63.7 145.1 63.1Q144.7 62.5 144.7 61.7L144.7 61.7ZM152.3 58.2L152.3 58.2L152.3 64.1L150.8 64.1L150.8 51.0L152.3 51.0L152.3 55.8L152.4 55.8Q152.8 55.0 153.5 54.6Q154.2 54.1 155.3 54.1L155.3 54.1Q156.3 54.1 157.1 54.5Q157.8 54.9 158.3 55.7Q158.7 56.6 158.7 57.8L158.7 57.8L158.7 64.1L157.2 64.1L157.2 57.9Q157.2 56.8 156.6 56.1Q156.0 55.5 154.9 55.5L154.9 55.5Q154.2 55.5 153.6 55.8Q153.0 56.1 152.7 56.7Q152.3 57.3 152.3 58.2ZM165.2 64.1L163.7 64.1L160.7 54.3L162.3 54.3L164.4 61.8L164.5 61.8L166.6 54.3L168.2 54.3L170.3 61.7L170.4 61.7L172.5 54.3L174.1 54.3L171.1 64.1L169.6 64.1L167.5 56.5L167.3 56.5L165.2 64.1ZM177.6 64.1L176.1 64.1L176.1 54.3L177.6 54.3L177.6 64.1ZM176.8 52.6L176.8 52.6Q176.4 52.6 176.1 52.3Q175.8 52.0 175.8 51.6L175.8 51.6Q175.8 51.2 176.1 50.9Q176.4 50.6 176.8 50.6L176.8 50.6Q177.3 50.6 177.6 50.9Q177.9 51.2 177.9 51.6L177.9 51.6Q177.9 52.0 177.6 52.3Q177.3 52.6 176.8 52.6ZM183.5 58.9L181.7 60.5L181.7 58.6L182.0 58.6L186.3 54.3L188.2 54.3L183.6 58.9L183.5 58.9ZM181.8 64.1L180.3 64.1L180.3 51.0L181.8 51.0L181.8 64.1ZM188.5 64.1L186.6 64.1L182.7 59.2L183.8 58.2L188.5 64.1ZM191.6 64.1L190.1 64.1L190.1 54.3L191.6 54.3L191.6 64.1ZM190.9 52.6L190.9 52.6Q190.5 52.6 190.1 52.3Q189.8 52.0 189.8 51.6L189.8 51.6Q189.8 51.2 190.1 50.9Q190.5 50.6 190.9 50.6L190.9 50.6Q191.3 50.6 191.7 50.9Q192.0 51.2 192.0 51.6L192.0 51.6Q192.0 52.0 191.7 52.3Q191.3 52.6 190.9 52.6ZM195.5 64.2L195.5 64.2Q195.0 64.2 194.7 63.8Q194.4 63.5 194.4 63.0L194.4 63.0Q194.4 62.6 194.7 62.2Q195.0 61.9 195.5 61.9L195.5 61.9Q196.0 61.9 196.3 62.2Q196.7 62.6 196.7 63.0L196.7 63.0Q196.7 63.3 196.5 63.6Q196.3 63.9 196.1 64.0Q195.8 64.2 195.5 64.2ZM203.4 64.3L203.4 64.3Q202.0 64.3 201.0 63.6Q200.0 63.0 199.4 61.8Q198.9 60.7 198.9 59.2L198.9 59.2Q198.9 57.7 199.5 56.6Q200.0 55.4 201.0 54.8Q202.0 54.1 203.3 54.1L203.3 54.1Q204.4 54.1 205.2 54.5Q206.0 54.9 206.6 55.6Q207.1 56.3 207.2 57.2L207.2 57.2L205.7 57.2Q205.5 56.5 204.9 56.0Q204.3 55.5 203.4 55.5L203.4 55.5Q202.5 55.5 201.8 55.9Q201.1 56.4 200.8 57.2Q200.4 58.1 200.4 59.2L200.4 59.2Q200.4 60.3 200.8 61.1Q201.1 62.0 201.8 62.5Q202.5 62.9 203.4 62.9L203.4 62.9Q203.9 62.9 204.4 62.7Q204.9 62.5 205.2 62.1Q205.6 61.7 205.7 61.2L205.7 61.2L207.2 61.2Q207.1 62.1 206.6 62.8Q206.1 63.5 205.3 63.9Q204.4 64.3 203.4 64.3ZM213.4 64.3L213.4 64.3Q212.0 64.3 211.0 63.6Q210.0 63.0 209.5 61.8Q209.0 60.7 209.0 59.2L209.0 59.2Q209.0 57.7 209.5 56.6Q210.1 55.4 211.1 54.8Q212.0 54.1 213.4 54.1L213.4 54.1Q214.4 54.1 215.2 54.5Q216.1 54.9 216.6 55.6Q217.1 56.3 217.3 57.2L217.3 57.2L215.8 57.2Q215.6 56.5 215.0 56.0Q214.4 55.5 213.4 55.5L213.4 55.5Q212.5 55.5 211.9 55.9Q211.2 56.4 210.8 57.2Q210.5 58.1 210.5 59.2L210.5 59.2Q210.5 60.3 210.8 61.1Q211.2 62.0 211.8 62.5Q212.5 62.9 213.4 62.9L213.4 62.9Q214.0 62.9 214.5 62.7Q214.9 62.5 215.3 62.1Q215.6 61.7 215.8 61.2L215.8 61.2L217.3 61.2Q217.1 62.1 216.6 62.8Q216.1 63.5 215.3 63.9Q214.5 64.3 213.4 64.3ZM222.7 50.4L224.1 50.4L219.9 66.0L218.5 66.0L222.7 50.4Z "/><mask id="satori_om-id-0-1"><rect x="233" y="43" width="210" height="30" fill="#fff"/></mask><defs><clipPath id="satori_bc-id-0-1-0"><rect x="233" y="43" width="210" height="30"/></clipPath></defs><mask id="satori_om-id-0-1-0"><rect x="233" y="43" width="210" height="28" fill="#fff"/><path width="210" height="30" fill="none" stroke="#000" stroke-width="4" d="M443,73 A0,0 0 0 1 443,73 h-210 A0,0 0 0 1 233,73"/></mask><path width="210" height="30" clip-path="url(#satori_bc-id-0-1-0)" fill="none" stroke="rgb(249 168 212)" stroke-width="4" d="M443,73 A0,0 0 0 1 443,73 h-210 A0,0 0 0 1 233,73"/><path fill="black" d="M236.0 63.1L234.6 63.1L234.6 50.0L236.1 50.0L236.1 54.8L236.2 54.8Q236.4 54.6 236.7 54.2Q237.0 53.8 237.5 53.4Q238.1 53.1 239.1 53.1L239.1 53.1Q240.3 53.1 241.2 53.7Q242.2 54.4 242.7 55.5Q243.3 56.6 243.3 58.2L243.3 58.2Q243.3 59.8 242.7 60.9Q242.2 62.0 241.3 62.7Q240.3 63.3 239.1 63.3L239.1 63.3Q238.1 63.3 237.6 63.0Q237.0 62.6 236.7 62.2Q236.4 61.8 236.2 61.6L236.2 61.6L236.0 61.6L236.0 63.1ZM236.1 58.2L236.1 58.2Q236.1 59.3 236.4 60.1Q236.7 61.0 237.3 61.4Q238.0 61.9 238.9 61.9L238.9 61.9Q239.8 61.9 240.5 61.4Q241.1 60.9 241.4 60.1Q241.7 59.2 241.7 58.2L241.7 58.2Q241.7 57.1 241.4 56.3Q241.1 55.5 240.5 55.0Q239.8 54.5 238.9 54.5L238.9 54.5Q238.0 54.5 237.3 54.9Q236.7 55.4 236.4 56.2Q236.1 57.1 236.1 58.2ZM248.4 63.3L248.4 63.3Q247.5 63.3 246.7 63.0Q246.0 62.6 245.5 61.9Q245.1 61.2 245.1 60.3L245.1 60.3Q245.1 59.4 245.4 58.9Q245.8 58.4 246.3 58.1Q246.9 57.8 247.5 57.6Q248.2 57.5 248.9 57.4L248.9 57.4Q249.8 57.3 250.4 57.2Q250.9 57.2 251.2 57.0Q251.4 56.9 251.4 56.5L251.4 56.5L251.4 56.5Q251.4 55.5 250.9 55.0Q250.4 54.5 249.4 54.5L249.4 54.5Q248.3 54.5 247.7 54.9Q247.1 55.4 246.8 55.9L246.8 55.9L245.4 55.4Q245.8 54.5 246.4 54.0Q247.0 53.5 247.8 53.3Q248.6 53.1 249.3 53.1L249.3 53.1Q249.8 53.1 250.4 53.2Q251.0 53.4 251.6 53.7Q252.2 54.0 252.6 54.7Q252.9 55.4 252.9 56.6L252.9 56.6L252.9 63.1L251.4 63.1L251.4 61.7L251.4 61.7Q251.2 62.1 250.8 62.4Q250.5 62.8 249.9 63.0Q249.3 63.3 248.4 63.3ZM248.7 62.0L248.7 62.0Q249.6 62.0 250.2 61.6Q250.8 61.2 251.1 60.7Q251.4 60.1 251.4 59.5L251.4 59.5L251.4 58.1Q251.3 58.3 251.0 58.3Q250.7 58.4 250.3 58.5Q249.9 58.6 249.5 58.6Q249.1 58.7 248.8 58.7L248.8 58.7Q248.2 58.8 247.7 58.9Q247.2 59.1 246.9 59.5Q246.6 59.8 246.6 60.4L246.6 60.4Q246.6 61.2 247.2 61.6Q247.8 62.0 248.7 62.0ZM259.4 63.3L259.4 63.3Q258.2 63.3 257.2 62.7Q256.3 62.0 255.8 60.9Q255.2 59.8 255.2 58.2L255.2 58.2Q255.2 56.6 255.8 55.5Q256.3 54.4 257.3 53.7Q258.2 53.1 259.4 53.1L259.4 53.1Q260.4 53.1 261.0 53.4Q261.5 53.8 261.8 54.2Q262.1 54.6 262.3 54.8L262.3 54.8L262.4 54.8L262.4 50.0L263.9 50.0L263.9 63.1L262.5 63.1L262.5 61.6L262.3 61.6Q262.1 61.8 261.8 62.2Q261.5 62.6 260.9 63.0Q260.4 63.3 259.4 63.3ZM259.6 61.9L259.6 61.9Q260.5 61.9 261.2 61.4Q261.8 61.0 262.1 60.1Q262.4 59.3 262.4 58.2L262.4 58.2Q262.4 57.1 262.1 56.2Q261.8 55.4 261.2 54.9Q260.5 54.5 259.6 54.5L259.6 54.5Q258.7 54.5 258.0 55.0Q257.4 55.5 257.1 56.3Q256.8 57.1 256.8 58.2L256.8 58.2Q256.8 59.2 257.1 60.1Q257.4 60.9 258.0 61.4Q258.7 61.9 259.6 61.9Z M274.8 63.3L274.8 63.3Q273.9 63.3 273.1 63.0Q272.4 62.6 271.9 61.9Q271.5 61.2 271.5 60.3L271.5 60.3Q271.5 59.4 271.8 58.9Q272.1 58.4 272.7 58.1Q273.3 57.8 273.9 57.6Q274.6 57.5 275.3 57.4L275.3 57.4Q276.2 57.3 276.7 57.2Q277.3 57.2 277.6 57.0Q277.8 56.9 277.8 56.5L277.8 56.5L277.8 56.5Q277.8 55.5 277.3 55.0Q276.8 54.5 275.8 54.5L275.8 54.5Q274.7 54.5 274.1 54.9Q273.4 55.4 273.2 55.9L273.2 55.9L271.8 55.4Q272.1 54.5 272.8 54.0Q273.4 53.5 274.2 53.3Q275.0 53.1 275.7 53.1L275.7 53.1Q276.2 53.1 276.8 53.2Q277.4 53.4 278.0 53.7Q278.6 54.0 278.9 54.7Q279.3 55.4 279.3 56.6L279.3 56.6L279.3 63.1L277.8 63.1L277.8 61.7L277.7 61.7Q277.6 62.1 277.2 62.4Q276.9 62.8 276.3 63.0Q275.7 63.3 274.8 63.3ZM275.1 62.0L275.1 62.0Q276.0 62.0 276.6 61.6Q277.2 61.2 277.5 60.7Q277.8 60.1 277.8 59.5L277.8 59.5L277.8 58.1Q277.7 58.3 277.4 58.3Q277.1 58.4 276.7 58.5Q276.2 58.6 275.8 58.6Q275.5 58.7 275.2 58.7L275.2 58.7Q274.6 58.8 274.1 58.9Q273.6 59.1 273.3 59.5Q273.0 59.8 273.0 60.4L273.0 60.4Q273.0 61.2 273.6 61.6Q274.2 62.0 275.1 62.0ZM283.6 66.8L282.1 66.8L282.1 53.3L283.5 53.3L283.5 54.8L283.7 54.8Q283.9 54.6 284.2 54.2Q284.5 53.8 285.0 53.4Q285.6 53.1 286.6 53.1L286.6 53.1Q287.8 53.1 288.8 53.7Q289.7 54.4 290.2 55.5Q290.8 56.6 290.8 58.2L290.8 58.2Q290.8 59.8 290.2 60.9Q289.7 62.0 288.8 62.7Q287.8 63.3 286.6 63.3L286.6 63.3Q285.6 63.3 285.1 63.0Q284.5 62.6 284.2 62.2Q283.9 61.8 283.7 61.6L283.7 61.6L283.6 61.6L283.6 66.8ZM283.6 58.2L283.6 58.2Q283.6 59.3 283.9 60.1Q284.2 61.0 284.9 61.4Q285.5 61.9 286.4 61.9L286.4 61.9Q287.3 61.9 288.0 61.4Q288.6 60.9 288.9 60.1Q289.3 59.2 289.3 58.2L289.3 58.2Q289.3 57.1 288.9 56.3Q288.6 55.5 288.0 55.0Q287.3 54.5 286.4 54.5L286.4 54.5Q285.5 54.5 284.8 54.9Q284.2 55.4 283.9 56.2Q283.6 57.1 283.6 58.2ZM294.6 66.8L293.1 66.8L293.1 53.3L294.5 53.3L294.5 54.8L294.7 54.8Q294.9 54.6 295.2 54.2Q295.5 53.8 296.0 53.4Q296.6 53.1 297.5 53.1L297.5 53.1Q298.8 53.1 299.7 53.7Q300.7 54.4 301.2 55.5Q301.7 56.6 301.7 58.2L301.7 58.2Q301.7 59.8 301.2 60.9Q300.7 62.0 299.7 62.7Q298.8 63.3 297.6 63.3L297.6 63.3Q296.6 63.3 296.0 63.0Q295.5 62.6 295.2 62.2Q294.9 61.8 294.7 61.6L294.7 61.6L294.6 61.6L294.6 66.8ZM294.5 58.2L294.5 58.2Q294.5 59.3 294.9 60.1Q295.2 61.0 295.8 61.4Q296.4 61.9 297.4 61.9L297.4 61.9Q298.3 61.9 298.9 61.4Q299.6 60.9 299.9 60.1Q300.2 59.2 300.2 58.2L300.2 58.2Q300.2 57.1 299.9 56.3Q299.6 55.5 298.9 55.0Q298.3 54.5 297.4 54.5L297.4 54.5Q296.4 54.5 295.8 54.9Q295.2 55.4 294.9 56.2Q294.5 57.1 294.5 58.2ZM304.0 50.0L305.5 50.0L305.5 63.1L304.0 63.1L304.0 50.0ZM312.4 63.3L312.4 63.3Q311.0 63.3 310.0 62.7Q308.9 62.0 308.4 60.9Q307.8 59.8 307.8 58.2L307.8 58.2Q307.8 56.7 308.4 55.6Q308.9 54.4 309.9 53.8Q310.9 53.1 312.3 53.1L312.3 53.1Q313.0 53.1 313.8 53.4Q314.5 53.6 315.1 54.2Q315.8 54.8 316.1 55.7Q316.5 56.7 316.5 58.0L316.5 58.0L316.5 58.7L308.9 58.7L308.9 57.4L314.9 57.4Q314.9 56.5 314.6 55.9Q314.3 55.2 313.7 54.9Q313.1 54.5 312.3 54.5L312.3 54.5Q311.4 54.5 310.7 54.9Q310.0 55.4 309.7 56.1Q309.3 56.8 309.3 57.6L309.3 57.6L309.3 58.5Q309.3 59.6 309.7 60.4Q310.1 61.1 310.8 61.5Q311.5 61.9 312.4 61.9L312.4 61.9Q313.0 61.9 313.5 61.8Q314.0 61.6 314.3 61.2Q314.7 60.9 314.9 60.4L314.9 60.4L316.3 60.8Q316.1 61.5 315.6 62.1Q315.0 62.7 314.2 63.0Q313.4 63.3 312.4 63.3ZM319.0 50.0L320.8 50.0L320.6 59.4L319.2 59.4L319.0 50.0ZM319.9 63.2L319.9 63.2Q319.4 63.2 319.1 62.8Q318.8 62.5 318.8 62.0L318.8 62.0Q318.8 61.6 319.1 61.2Q319.4 60.9 319.9 60.9L319.9 60.9Q320.4 60.9 320.7 61.2Q321.1 61.6 321.1 62.0L321.1 62.0Q321.1 62.3 320.9 62.6Q320.7 62.9 320.5 63.0Q320.2 63.2 319.9 63.2Z "/><mask id="satori_om-id-0-1-0-1"><rect x="322" y="43" width="6" height="28" fill="#fff"/></mask><path fill="rgb(107 114 128)" d="M324.3 45.8L325.6 45.8L325.6 67.3L324.3 67.3L324.3 45.8Z "/><defs><clipPath id="satori_bc-id-0-1-1"><rect x="233" y="81" width="240" height="192"/></clipPath></defs><mask id="satori_om-id-0-1-1"><rect x="234" y="82" width="238" height="190" fill="#fff"/><path width="240" height="192" fill="none" stroke="#000" stroke-width="2" d="M233,81 A0,0 0 0 1 233,81 h240 a0,0 0 0 1 0,0 v192 a0,0 0 0 1 0,0 h-240 a0,0 0 0 1 0,0 v-192 A0,0 0 0 1 233,81"/></mask><rect x="233" y="81" width="240" height="192" fill="#fff"/><path width="240" height="192" clip-path="url(#satori_bc-id-0-1-1)" fill="none" stroke="rgb(209 213 219)" stroke-width="2" d="M233,81 A0,0 0 0 1 233,81 h240 a0,0 0 0 1 0,0 v192 a0,0 0 0 1 0,0 h-240 a0,0 0 0 1 0,0 v-192 A0,0 0 0 1 233,81"/><defs><clipPath id="satori_bc-id-0-1-1-0"><rect x="234" y="82" width="238" height="43"/></clipPath></defs><mask id="satori_om-id-0-1-1-0"><rect x="234" y="82" width="238" height="42" fill="#fff"/><path width="238" height="43" fill="none" stroke="#000" stroke-width="2" d="M472,125 A0,0 0 0 1 472,125 h-238 A0,0 0 0 1 234,125"/></mask><path width="238" height="43" clip-path="url(#satori_bc-id-0-1-1-0)" fill="none" stroke="rgb(209 213 219)" stroke-width="2" d="M472,125 A0,0 0 0 1 472,125 h-238 A0,0 0 0 1 234,125"/><path fill="black" d="M254.9 108.1L251.2 108.1L251.2 98.0L254.8 98.0Q255.9 98.0 256.5 98.3Q257.2 98.7 257.6 99.3Q257.9 99.9 257.9 100.7L257.9 100.7Q257.9 101.3 257.7 101.7Q257.5 102.2 257.1 102.4Q256.7 102.7 256.3 102.8L256.3 102.8L256.3 102.9Q256.7 102.9 257.2 103.2Q257.7 103.5 258.0 104.1Q258.3 104.6 258.3 105.4L258.3 105.4Q258.3 106.2 258.0 106.8Q257.6 107.4 256.9 107.8Q256.1 108.1 254.9 108.1L254.9 108.1ZM252.5 103.5L252.5 107.0L254.9 107.0Q256.1 107.0 256.6 106.6Q257.1 106.1 257.1 105.4L257.1 105.4Q257.1 104.9 256.9 104.5Q256.6 104.0 256.1 103.8Q255.6 103.5 255.0 103.5L255.0 103.5L252.5 103.5ZM252.5 99.0L252.5 102.4L254.8 102.4Q255.3 102.4 255.8 102.2Q256.2 102.0 256.5 101.6Q256.7 101.2 256.7 100.7L256.7 100.7Q256.7 100.0 256.3 99.5Q255.8 99.0 254.8 99.0L254.8 99.0L252.5 99.0ZM262.4 108.3L262.4 108.3Q261.7 108.3 261.1 108.0Q260.5 107.8 260.2 107.2Q259.8 106.7 259.8 106.0L259.8 106.0Q259.8 105.3 260.1 104.9Q260.3 104.5 260.8 104.3Q261.2 104.0 261.7 103.9Q262.3 103.8 262.8 103.7L262.8 103.7Q263.5 103.6 263.9 103.6Q264.4 103.5 264.6 103.4Q264.8 103.3 264.8 103.0L264.8 103.0L264.8 103.0Q264.8 102.3 264.4 101.8Q264.0 101.4 263.1 101.4L263.1 101.4Q262.3 101.4 261.8 101.8Q261.4 102.2 261.2 102.6L261.2 102.6L260.0 102.2Q260.3 101.5 260.8 101.1Q261.3 100.7 261.9 100.6Q262.5 100.4 263.1 100.4L263.1 100.4Q263.5 100.4 264.0 100.5Q264.4 100.6 264.9 100.8Q265.3 101.1 265.6 101.7Q265.9 102.2 265.9 103.1L265.9 103.1L265.9 108.1L264.8 108.1L264.8 107.1L264.7 107.1Q264.6 107.4 264.3 107.6Q264.0 107.9 263.6 108.1Q263.1 108.3 262.4 108.3ZM262.6 107.3L262.6 107.3Q263.3 107.3 263.8 107.0Q264.3 106.7 264.5 106.3Q264.8 105.9 264.8 105.4L264.8 105.4L264.8 104.3Q264.7 104.4 264.4 104.5Q264.2 104.5 263.9 104.6Q263.5 104.6 263.2 104.7Q262.9 104.7 262.7 104.7L262.7 104.7Q262.3 104.8 261.9 104.9Q261.5 105.1 261.2 105.3Q261.0 105.6 261.0 106.0L261.0 106.0Q261.0 106.6 261.5 107.0Q261.9 107.3 262.6 107.3ZM271.0 108.3L271.0 108.3Q270.0 108.3 269.3 107.8Q268.5 107.3 268.1 106.4Q267.7 105.6 267.7 104.3L267.7 104.3Q267.7 103.1 268.1 102.3Q268.5 101.4 269.3 100.9Q270.0 100.4 271.0 100.4L271.0 100.4Q271.7 100.4 272.2 100.6Q272.6 100.9 272.8 101.2Q273.1 101.5 273.2 101.7L273.2 101.7L273.3 101.7L273.3 98.0L274.5 98.0L274.5 108.1L273.3 108.1L273.3 107.0L273.2 107.0Q273.1 107.2 272.8 107.5Q272.6 107.8 272.1 108.1Q271.7 108.3 271.0 108.3ZM271.1 107.2L271.1 107.2Q271.8 107.2 272.3 106.9Q272.8 106.5 273.1 105.8Q273.3 105.2 273.3 104.3L273.3 104.3Q273.3 103.5 273.1 102.8Q272.8 102.2 272.3 101.8Q271.8 101.5 271.1 101.5L271.1 101.5Q270.4 101.5 269.9 101.8Q269.4 102.2 269.1 102.9Q268.9 103.5 268.9 104.3L268.9 104.3Q268.9 105.1 269.1 105.8Q269.4 106.5 269.9 106.9Q270.4 107.2 271.1 107.2Z M284.3 99.6L281.3 108.1L280.0 108.1L283.7 98.0L285 98.0L288.7 108.1L287.4 108.1L284.4 99.6L284.3 99.6ZM281.8 105.3L281.8 104.2L287.0 104.2L287.0 105.3L281.8 105.3ZM291.3 111.0L290.2 111.0L290.2 100.5L291.3 100.5L291.3 101.7L291.4 101.7Q291.6 101.5 291.8 101.2Q292.0 100.9 292.5 100.6Q292.9 100.4 293.7 100.4L293.7 100.4Q294.6 100.4 295.4 100.9Q296.1 101.4 296.5 102.3Q296.9 103.1 296.9 104.3L296.9 104.3Q296.9 105.6 296.5 106.4Q296.1 107.3 295.4 107.8Q294.6 108.3 293.7 108.3L293.7 108.3Q292.9 108.3 292.5 108.1Q292.0 107.8 291.8 107.5Q291.6 107.2 291.4 107.0L291.4 107.0L291.3 107.0L291.3 111.0ZM291.3 104.3L291.3 104.3Q291.3 105.2 291.6 105.8Q291.8 106.5 292.3 106.9Q292.8 107.2 293.5 107.2L293.5 107.2Q294.2 107.2 294.7 106.9Q295.2 106.5 295.5 105.8Q295.7 105.1 295.7 104.3L295.7 104.3Q295.7 103.5 295.5 102.9Q295.2 102.2 294.8 101.8Q294.3 101.5 293.5 101.5L293.5 101.5Q292.8 101.5 292.3 101.8Q291.8 102.2 291.6 102.8Q291.3 103.5 291.3 104.3ZM299.9 111.0L298.7 111.0L298.7 100.5L299.8 100.5L299.8 101.7L300.0 101.7Q300.1 101.5 300.3 101.2Q300.6 100.9 301.0 100.6Q301.4 100.4 302.2 100.4L302.2 100.4Q303.1 100.4 303.9 100.9Q304.6 101.4 305.0 102.3Q305.4 103.1 305.4 104.3L305.4 104.3Q305.4 105.6 305.0 106.4Q304.6 107.3 303.9 107.8Q303.2 108.3 302.2 108.3L302.2 108.3Q301.5 108.3 301.0 108.1Q300.6 107.8 300.3 107.5Q300.1 107.2 300.0 107.0L300.0 107.0L299.9 107.0L299.9 111.0ZM299.9 104.3L299.9 104.3Q299.9 105.2 300.1 105.8Q300.4 106.5 300.8 106.9Q301.3 107.2 302.0 107.2L302.0 107.2Q302.8 107.2 303.3 106.9Q303.8 106.5 304.0 105.8Q304.3 105.1 304.3 104.3L304.3 104.3Q304.3 103.5 304.0 102.9Q303.8 102.2 303.3 101.8Q302.8 101.5 302.0 101.5L302.0 101.5Q301.3 101.5 300.8 101.8Q300.4 102.2 300.1 102.8Q299.9 103.5 299.9 104.3ZM307.2 98.0L308.4 98.0L308.4 108.1L307.2 108.1L307.2 98.0ZM313.8 108.3L313.8 108.3Q312.7 108.3 311.9 107.8Q311.1 107.3 310.6 106.4Q310.2 105.6 310.2 104.4L310.2 104.4Q310.2 103.2 310.6 102.3Q311.1 101.4 311.8 100.9Q312.6 100.4 313.6 100.4L313.6 100.4Q314.2 100.4 314.8 100.6Q315.4 100.8 315.9 101.2Q316.4 101.7 316.6 102.4Q316.9 103.2 316.9 104.2L316.9 104.2L316.9 104.7L311.0 104.7L311.0 103.7L315.7 103.7Q315.7 103.1 315.5 102.5Q315.2 102.0 314.7 101.7Q314.3 101.5 313.6 101.5L313.6 101.5Q312.9 101.5 312.4 101.8Q311.9 102.1 311.6 102.7Q311.4 103.3 311.4 103.9L311.4 103.9L311.4 104.6Q311.4 105.4 311.7 106.0Q312.0 106.6 312.5 106.9Q313.0 107.2 313.8 107.2L313.8 107.2Q314.2 107.2 314.6 107.1Q315.0 107.0 315.2 106.7Q315.5 106.4 315.7 106.0L315.7 106.0L316.8 106.4Q316.6 106.9 316.2 107.4Q315.8 107.8 315.2 108.1Q314.5 108.3 313.8 108.3ZM318.9 98.0L320.3 98.0L320.2 105.3L319.0 105.3L318.9 98.0ZM319.6 108.2L319.6 108.2Q319.2 108.2 319.0 108.0Q318.7 107.7 318.7 107.3L318.7 107.3Q318.7 107.0 319.0 106.7Q319.2 106.4 319.6 106.4L319.6 106.4Q320.0 106.4 320.2 106.7Q320.5 107.0 320.5 107.3L320.5 107.3Q320.5 107.6 320.4 107.8Q320.2 108.0 320.0 108.1Q319.8 108.2 319.6 108.2ZM322.8 98.0L324.2 98.0L324.1 105.3L322.9 105.3L322.8 98.0ZM323.5 108.2L323.5 108.2Q323.1 108.2 322.8 108.0Q322.6 107.7 322.6 107.3L322.6 107.3Q322.6 107.0 322.8 106.7Q323.1 106.4 323.5 106.4L323.5 106.4Q323.8 106.4 324.1 106.7Q324.4 107.0 324.4 107.3L324.4 107.3Q324.4 107.6 324.3 107.8Q324.1 108.0 323.9 108.1Q323.7 108.2 323.5 108.2ZM335.2 102.8L335.2 102.8Q335.2 101.4 335.5 100.3Q335.8 99.1 336.5 98.0Q337.1 97.0 337.9 96.2L337.9 96.2L338.8 96.6Q338.0 97.4 337.4 98.4Q336.8 99.4 336.5 100.5Q336.2 101.6 336.2 102.8L336.2 102.8Q336.2 104.1 336.5 105.2Q336.8 106.3 337.4 107.2Q338.0 108.2 338.8 109.0L338.8 109.0L337.9 109.5Q337.1 108.6 336.5 107.6Q335.8 106.6 335.5 105.4Q335.2 104.2 335.2 102.8ZM341.7 97.9L341.7 97.0L351.2 97.0L351.2 99.4L352.7 99.4L352.7 100.4L351.2 100.4L351.2 102.8L344.7 102.8Q344.7 103.0 344.6 103.1L344.6 103.1Q344.3 103.7 343.9 104.3L343.9 104.3L351.5 104.3L351.5 109.3L350.4 109.3L350.4 108.6L344.2 108.6L344.2 109.3L343.1 109.3L343.1 105.2Q343.0 105.3 342.9 105.4L342.9 105.4Q341.9 106.4 340.6 107.1L340.6 107.1Q340.5 107.0 340.4 106.9Q340.3 106.7 340.1 106.6Q340.0 106.4 339.9 106.3L339.9 106.3Q341.2 105.6 342.1 104.7L342.1 104.7Q343.0 103.8 343.5 102.8L343.5 102.8L341.5 102.8L341.5 101.9L344.0 101.9Q344.4 101.2 344.7 100.4L344.7 100.4L340.2 100.4L340.2 99.4L344.9 99.4Q345.1 98.7 345.3 97.9L345.3 97.9L341.7 97.9ZM344.2 107.7L350.4 107.7L350.4 105.2L344.2 105.2L344.2 107.7ZM345.2 101.9L345.2 101.9L350.1 101.9L350.1 100.4L345.8 100.4Q345.7 100.4 345.7 100.5L345.7 100.5Q345.5 101.2 345.2 101.9ZM346.0 99.4L350.1 99.4L350.1 97.9L346.4 97.9Q346.2 98.7 346.0 99.4L346.0 99.4ZM361.3 99.1L361.3 99.1Q361.1 100.0 361.0 100.9L361.0 100.9Q360.8 102.0 360.4 103.2L360.4 103.2Q360.0 104.6 359.5 105.6Q359.0 106.5 358.4 107.0Q357.8 107.5 357.2 107.5L357.2 107.5Q356.5 107.5 356.0 107.1Q355.4 106.6 355.0 105.8Q354.7 104.9 354.7 103.8Q354.7 102.6 355.1 101.6Q355.6 100.6 356.4 99.8Q357.3 99.0 358.4 98.5Q359.5 98.1 360.8 98.1L360.8 98.1Q362.0 98.1 363.0 98.5Q364.0 98.9 364.7 99.6Q365.4 100.3 365.8 101.2Q366.1 102.2 366.1 103.2L366.1 103.2Q366.1 104.7 365.5 105.8Q364.9 106.9 363.7 107.6Q362.6 108.3 360.9 108.6L360.9 108.6L360.2 107.5Q360.6 107.5 360.9 107.5Q361.2 107.4 361.4 107.4L361.4 107.4Q362.1 107.2 362.7 106.9Q363.4 106.5 363.9 106.0Q364.4 105.5 364.7 104.8Q365.0 104.1 365.0 103.2L365.0 103.2Q365.0 102.3 364.7 101.6Q364.4 100.9 363.9 100.3Q363.3 99.8 362.6 99.4L362.6 99.4Q362.0 99.2 361.3 99.1ZM360.1 99.2L360.1 99.2Q359.3 99.2 358.7 99.5L358.7 99.5Q357.8 99.9 357.1 100.6Q356.5 101.3 356.1 102.1Q355.8 102.9 355.8 103.7L355.8 103.7Q355.8 104.6 356.0 105.1Q356.2 105.7 356.5 106.0Q356.9 106.2 357.2 106.2L357.2 106.2Q357.5 106.2 357.9 105.9Q358.2 105.6 358.6 104.8Q359.0 104.1 359.3 102.9L359.3 102.9Q359.6 101.9 359.8 100.8L359.8 100.8Q360.0 100.0 360.1 99.2ZM368.8 99.3L368.8 98.3L371.7 98.3Q371.5 98.0 371.3 97.7L371.3 97.7Q371.0 97.1 370.6 96.7L370.6 96.7L371.5 96.4Q371.9 96.7 372.2 97.2Q372.6 97.7 372.7 98.1L372.7 98.1L372.2 98.3L376.5 98.3L375.9 98.2Q376.2 97.9 376.4 97.6Q376.6 97.3 376.8 96.9Q377.0 96.6 377.2 96.4L377.2 96.4L378.3 96.7Q377.9 97.2 377.6 97.7L377.6 97.7Q377.2 98.0 377.0 98.3L377.0 98.3L380.1 98.3L380.1 99.3L374.9 99.3L374.9 100.4L379.4 100.4L379.4 101.3L374.9 101.3L374.9 102.5L380.6 102.5L380.6 103.5L374.9 103.5Q374.8 104.1 374.7 104.8L374.7 104.8L380.8 104.8L380.8 105.7L375.5 105.7Q376.2 106.7 377.2 107.3L377.2 107.3Q378.7 108.1 381.0 108.3L381.0 108.3Q380.9 108.4 380.7 108.6Q380.6 108.8 380.5 109.0Q380.4 109.1 380.3 109.3L380.3 109.3Q378.7 109.1 377.5 108.6Q376.3 108.1 375.5 107.3L375.5 107.3Q374.9 106.6 374.5 105.7L374.5 105.7L374.4 105.7Q374.2 106.2 373.9 106.6L373.9 106.6Q373.5 107.2 372.8 107.7Q372.1 108.3 371.1 108.6Q370.0 109.0 368.5 109.3L368.5 109.3Q368.5 109.1 368.4 109.0Q368.3 108.8 368.2 108.6Q368.1 108.4 367.9 108.3L367.9 108.3Q369.4 108.1 370.3 107.8Q371.3 107.5 372.0 107.1Q372.6 106.6 373.0 106.1L373.0 106.1Q373.1 105.9 373.2 105.7L373.2 105.7L368.1 105.7L368.1 104.8L373.5 104.8Q373.7 104.2 373.8 103.5L373.8 103.5L368.2 103.5L368.2 102.5L373.9 102.5L373.9 101.3L369.5 101.3L369.5 100.4L373.9 100.4L373.9 99.3L368.8 99.3ZM385.7 99.5L385.7 99.5L387.8 99.5L387.8 96.6L388.8 96.6L388.8 99.5L390.9 99.5L390.9 100.4L388.8 100.4L388.8 109.0L387.8 109.0L387.8 100.4L385.7 100.4L385.7 99.6Q385.3 100.4 384.7 101.2L384.7 101.2Q384.6 101.4 384.5 101.6L384.5 101.6L384.5 109.3L383.5 109.3L383.5 102.8Q382.9 103.6 382.3 104.1L382.3 104.1Q382.2 104.0 382.1 103.8Q382.0 103.7 381.9 103.5Q381.8 103.3 381.7 103.2L381.7 103.2Q382.6 102.5 383.4 101.4Q384.2 100.4 384.8 99.2L384.8 99.2L385.7 99.5ZM391.0 102.0L391.0 101.1L394.9 101.1L394.9 102.0L393.6 102.0L393.6 108.0Q393.6 108.4 393.5 108.7Q393.4 108.9 393.1 109.1L393.1 109.1Q392.8 109.2 392.3 109.2Q391.8 109.3 391.1 109.3L391.1 109.3Q391.1 109.0 391.0 108.8Q390.9 108.5 390.8 108.2L390.8 108.2Q391.3 108.3 391.8 108.3Q392.2 108.3 392.3 108.3Q392.5 108.2 392.6 108.2Q392.6 108.1 392.6 108.0L392.6 108.0L392.6 102.0L391.0 102.0ZM386.0 102.1L386.0 102.1L386.9 102.3Q386.9 103.3 386.7 104.2Q386.6 105.2 386.4 106.0Q386.2 106.8 385.9 107.4L385.9 107.4Q385.8 107.4 385.6 107.3Q385.5 107.2 385.4 107.1Q385.2 107.0 385.1 106.9L385.1 106.9Q385.4 106.4 385.6 105.6Q385.8 104.8 385.9 103.9Q386.0 103.1 386.0 102.1ZM384.4 96.4L384.4 96.4L385.3 96.7Q385.0 97.3 384.5 97.9Q384.0 98.5 383.5 99.0Q383.0 99.6 382.4 100.0L382.4 100.0Q382.4 99.9 382.3 99.7Q382.2 99.6 382.1 99.4Q381.9 99.3 381.9 99.2L381.9 99.2Q382.3 98.8 382.8 98.4Q383.3 97.9 383.7 97.4Q384.1 96.9 384.4 96.4ZM389.5 102.3L389.5 102.3L390.3 102.2Q390.4 102.8 390.6 103.6Q390.8 104.3 390.9 105.0Q391.0 105.8 391.0 106.3L391.0 106.3L390.2 106.5Q390.2 105.9 390.0 105.2Q389.9 104.5 389.8 103.7Q389.6 103.0 389.5 102.3ZM391.3 98.1L391.3 97.2L394.7 97.2L394.7 98.1L391.3 98.1ZM389.2 97.1L389.2 97.1L389.9 96.7Q390.2 97.2 390.6 97.7Q390.9 98.2 391.1 98.6L391.1 98.6L390.3 99.0Q390.2 98.6 389.9 98.1Q389.5 97.5 389.2 97.1ZM401.9 100.3L401.9 97.9L404.7 97.9L404.7 96.4L405.7 96.4L405.7 97.9L408.7 97.9L408.7 100.3L407.8 100.3L407.8 103.6L403.7 103.6L403.7 104.8L408.4 104.8L408.4 109.2L407.4 109.2L407.4 108.5L403.7 108.5L403.7 109.3L402.7 109.3L402.7 100.3L401.9 100.3ZM398.8 100.1L398.8 98.7L399.7 98.7L399.7 100.1L401.2 100.1L401.2 104.6L397.9 104.6L397.9 107.3Q398.4 107.2 399.0 107.0L399.0 107.0Q399.5 106.9 400.1 106.7L400.1 106.7Q400.0 106.7 400.0 106.6L400.0 106.6Q399.6 106.0 399.3 105.5L399.3 105.5L400.1 105.2Q400.5 105.6 400.8 106.2Q401.2 106.8 401.5 107.3Q401.7 107.9 401.9 108.3L401.9 108.3L401.0 108.8Q400.9 108.3 400.6 107.7L400.6 107.7Q400.5 107.6 400.5 107.5L400.5 107.5Q399.4 107.8 398.4 108.1L398.4 108.1Q397.2 108.4 396.3 108.7L396.3 108.7L396.0 107.7Q396.4 107.6 396.9 107.5L396.9 107.5L396.9 100.2Q396.7 100.4 396.4 100.7L396.4 100.7Q396.3 100.6 396.2 100.4Q396.0 100.3 395.9 100.2Q395.8 100.1 395.7 100.0L395.7 100.0Q396.4 99.5 396.9 98.8Q397.4 98.2 397.8 97.6Q398.2 96.9 398.5 96.4L398.5 96.4L399.5 96.4Q399.9 96.7 400.4 97.2Q400.8 97.6 401.2 98.0Q401.6 98.5 401.8 98.8L401.8 98.8L401.1 99.6Q400.9 99.3 400.5 98.8Q400.2 98.4 399.8 97.9L399.8 97.9Q399.5 97.5 399.1 97.3L399.1 97.3Q398.9 97.7 398.6 98.1L398.6 98.1Q398.2 98.7 397.7 99.4L397.7 99.4Q397.4 99.7 397.0 100.1L397.0 100.1L398.8 100.1ZM407.4 105.7L403.7 105.7L403.7 107.6L407.4 107.6L407.4 105.7ZM402.8 98.8L402.8 100.1L407.7 100.1L407.7 98.8L402.8 98.8ZM406.8 101.0L403.7 101.0L403.7 102.8L406.8 102.8L406.8 101.0ZM400.3 102.7L397.9 102.7L397.9 103.8L400.3 103.8L400.3 102.7ZM400.3 100.9L397.9 100.9L397.9 102.0L400.3 102.0L400.3 100.9ZM413.2 102.8L413.2 102.8Q413.2 104.2 412.9 105.4Q412.5 106.6 411.9 107.6Q411.3 108.6 410.4 109.5L410.4 109.5L409.6 109.0Q410.4 108.2 411.0 107.2Q411.6 106.3 411.9 105.2Q412.2 104.1 412.2 102.8L412.2 102.8Q412.2 101.6 411.9 100.5Q411.6 99.4 411.0 98.4Q410.4 97.4 409.6 96.6L409.6 96.6L410.4 96.2Q411.3 97.0 411.9 98.0Q412.5 99.1 412.9 100.3Q413.2 101.4 413.2 102.8Z "/><defs><clipPath id="satori_bc-id-0-1-1-1"><rect x="234" y="125" width="238" height="44"/></clipPath></defs><mask id="satori_om-id-0-1-1-1"><rect x="234" y="125" width="238" height="43" fill="#fff"/><path width="238" height="44" fill="none" stroke="#000" stroke-width="2" d="M472,169 A0,0 0 0 1 472,169 h-238 A0,0 0 0 1 234,169"/></mask><path width="238" height="44" clip-path="url(#satori_bc-id-0-1-1-1)" fill="none" stroke="rgb(209 213 219)" stroke-width="2" d="M472,169 A0,0 0 0 1 472,169 h-238 A0,0 0 0 1 234,169"/><path fill="black" d="M254.9 151.1L251.2 151.1L251.2 141.0L254.8 141.0Q255.9 141.0 256.5 141.3Q257.2 141.7 257.6 142.3Q257.9 142.9 257.9 143.7L257.9 143.7Q257.9 144.3 257.7 144.7Q257.5 145.2 257.1 145.4Q256.7 145.7 256.3 145.8L256.3 145.8L256.3 145.9Q256.7 145.9 257.2 146.2Q257.7 146.5 258.0 147.1Q258.3 147.6 258.3 148.4L258.3 148.4Q258.3 149.2 258.0 149.8Q257.6 150.4 256.9 150.8Q256.1 151.1 254.9 151.1L254.9 151.1ZM252.5 146.5L252.5 150.0L254.9 150.0Q256.1 150.0 256.6 149.6Q257.1 149.1 257.1 148.4L257.1 148.4Q257.1 147.9 256.9 147.5Q256.6 147.0 256.1 146.8Q255.6 146.5 255.0 146.5L255.0 146.5L252.5 146.5ZM252.5 142.0L252.5 145.4L254.8 145.4Q255.3 145.4 255.8 145.2Q256.2 145.0 256.5 144.6Q256.7 144.2 256.7 143.7L256.7 143.7Q256.7 143.0 256.3 142.5Q255.8 142.0 254.8 142.0L254.8 142.0L252.5 142.0ZM262.4 151.3L262.4 151.3Q261.7 151.3 261.1 151.0Q260.5 150.8 260.2 150.2Q259.8 149.7 259.8 149.0L259.8 149.0Q259.8 148.3 260.1 147.9Q260.3 147.5 260.8 147.3Q261.2 147.0 261.7 146.9Q262.3 146.8 262.8 146.7L262.8 146.7Q263.5 146.6 263.9 146.6Q264.4 146.5 264.6 146.4Q264.8 146.3 264.8 146.0L264.8 146.0L264.8 146.0Q264.8 145.3 264.4 144.8Q264.0 144.4 263.1 144.4L263.1 144.4Q262.3 144.4 261.8 144.8Q261.4 145.2 261.2 145.6L261.2 145.6L260.0 145.2Q260.3 144.5 260.8 144.1Q261.3 143.7 261.9 143.6Q262.5 143.4 263.1 143.4L263.1 143.4Q263.5 143.4 264.0 143.5Q264.4 143.6 264.9 143.8Q265.3 144.1 265.6 144.7Q265.9 145.2 265.9 146.1L265.9 146.1L265.9 151.1L264.8 151.1L264.8 150.1L264.7 150.1Q264.6 150.4 264.3 150.6Q264.0 150.9 263.6 151.1Q263.1 151.3 262.4 151.3ZM262.6 150.3L262.6 150.3Q263.3 150.3 263.8 150.0Q264.3 149.7 264.5 149.3Q264.8 148.9 264.8 148.4L264.8 148.4L264.8 147.3Q264.7 147.4 264.4 147.5Q264.2 147.5 263.9 147.6Q263.5 147.6 263.2 147.7Q262.9 147.7 262.7 147.7L262.7 147.7Q262.3 147.8 261.9 147.9Q261.5 148.1 261.2 148.3Q261.0 148.6 261.0 149.0L261.0 149.0Q261.0 149.6 261.5 150.0Q261.9 150.3 262.6 150.3ZM271.0 151.3L271.0 151.3Q270.0 151.3 269.3 150.8Q268.5 150.3 268.1 149.4Q267.7 148.6 267.7 147.3L267.7 147.3Q267.7 146.1 268.1 145.3Q268.5 144.4 269.3 143.9Q270.0 143.4 271.0 143.4L271.0 143.4Q271.7 143.4 272.2 143.6Q272.6 143.9 272.8 144.2Q273.1 144.5 273.2 144.7L273.2 144.7L273.3 144.7L273.3 141.0L274.5 141.0L274.5 151.1L273.3 151.1L273.3 150.0L273.2 150.0Q273.1 150.2 272.8 150.5Q272.6 150.8 272.1 151.1Q271.7 151.3 271.0 151.3ZM271.1 150.2L271.1 150.2Q271.8 150.2 272.3 149.9Q272.8 149.5 273.1 148.8Q273.3 148.2 273.3 147.3L273.3 147.3Q273.3 146.5 273.1 145.8Q272.8 145.2 272.3 144.8Q271.8 144.5 271.1 144.5L271.1 144.5Q270.4 144.5 269.9 144.8Q269.4 145.2 269.1 145.9Q268.9 146.5 268.9 147.3L268.9 147.3Q268.9 148.1 269.1 148.8Q269.4 149.5 269.9 149.9Q270.4 150.2 271.1 150.2Z M284.3 142.6L281.3 151.1L280.0 151.1L283.7 141.0L285 141.0L288.7 151.1L287.4 151.1L284.4 142.6L284.3 142.6ZM281.8 148.3L281.8 147.2L287.0 147.2L287.0 148.3L281.8 148.3ZM291.3 154.0L290.2 154.0L290.2 143.5L291.3 143.5L291.3 144.7L291.4 144.7Q291.6 144.5 291.8 144.2Q292.0 143.9 292.5 143.6Q292.9 143.4 293.7 143.4L293.7 143.4Q294.6 143.4 295.4 143.9Q296.1 144.4 296.5 145.3Q296.9 146.1 296.9 147.3L296.9 147.3Q296.9 148.6 296.5 149.4Q296.1 150.3 295.4 150.8Q294.6 151.3 293.7 151.3L293.7 151.3Q292.9 151.3 292.5 151.1Q292.0 150.8 291.8 150.5Q291.6 150.2 291.4 150.0L291.4 150.0L291.3 150.0L291.3 154.0ZM291.3 147.3L291.3 147.3Q291.3 148.2 291.6 148.8Q291.8 149.5 292.3 149.9Q292.8 150.2 293.5 150.2L293.5 150.2Q294.2 150.2 294.7 149.9Q295.2 149.5 295.5 148.8Q295.7 148.1 295.7 147.3L295.7 147.3Q295.7 146.5 295.5 145.9Q295.2 145.2 294.8 144.8Q294.3 144.5 293.5 144.5L293.5 144.5Q292.8 144.5 292.3 144.8Q291.8 145.2 291.6 145.8Q291.3 146.5 291.3 147.3ZM299.9 154.0L298.7 154.0L298.7 143.5L299.8 143.5L299.8 144.7L300.0 144.7Q300.1 144.5 300.3 144.2Q300.6 143.9 301.0 143.6Q301.4 143.4 302.2 143.4L302.2 143.4Q303.1 143.4 303.9 143.9Q304.6 144.4 305.0 145.3Q305.4 146.1 305.4 147.3L305.4 147.3Q305.4 148.6 305.0 149.4Q304.6 150.3 303.9 150.8Q303.2 151.3 302.2 151.3L302.2 151.3Q301.5 151.3 301.0 151.1Q300.6 150.8 300.3 150.5Q300.1 150.2 300.0 150.0L300.0 150.0L299.9 150.0L299.9 154.0ZM299.9 147.3L299.9 147.3Q299.9 148.2 300.1 148.8Q300.4 149.5 300.8 149.9Q301.3 150.2 302.0 150.2L302.0 150.2Q302.8 150.2 303.3 149.9Q303.8 149.5 304.0 148.8Q304.3 148.1 304.3 147.3L304.3 147.3Q304.3 146.5 304.0 145.9Q303.8 145.2 303.3 144.8Q302.8 144.5 302.0 144.5L302.0 144.5Q301.3 144.5 300.8 144.8Q300.4 145.2 300.1 145.8Q299.9 146.5 299.9 147.3ZM307.2 141.0L308.4 141.0L308.4 151.1L307.2 151.1L307.2 141.0ZM313.8 151.3L313.8 151.3Q312.7 151.3 311.9 150.8Q311.1 150.3 310.6 149.4Q310.2 148.6 310.2 147.4L310.2 147.4Q310.2 146.2 310.6 145.3Q311.1 144.4 311.8 143.9Q312.6 143.4 313.6 143.4L313.6 143.4Q314.2 143.4 314.8 143.6Q315.4 143.8 315.9 144.2Q316.4 144.7 316.6 145.4Q316.9 146.2 316.9 147.2L316.9 147.2L316.9 147.7L311.0 147.7L311.0 146.7L315.7 146.7Q315.7 146.1 315.5 145.5Q315.2 145.0 314.7 144.7Q314.3 144.5 313.6 144.5L313.6 144.5Q312.9 144.5 312.4 144.8Q311.9 145.1 311.6 145.7Q311.4 146.3 311.4 146.9L311.4 146.9L311.4 147.6Q311.4 148.4 311.7 149.0Q312.0 149.6 312.5 149.9Q313.0 150.2 313.8 150.2L313.8 150.2Q314.2 150.2 314.6 150.1Q315.0 150.0 315.2 149.7Q315.5 149.4 315.7 149.0L315.7 149.0L316.8 149.4Q316.6 149.9 316.2 150.4Q315.8 150.8 315.2 151.1Q314.5 151.3 313.8 151.3ZM318.9 141.0L320.3 141.0L320.2 148.3L319.0 148.3L318.9 141.0ZM319.6 151.2L319.6 151.2Q319.2 151.2 319.0 151.0Q318.7 150.7 318.7 150.3L318.7 150.3Q318.7 150.0 319.0 149.7Q319.2 149.4 319.6 149.4L319.6 149.4Q320.0 149.4 320.2 149.7Q320.5 150.0 320.5 150.3L320.5 150.3Q320.5 150.6 320.4 150.8Q320.2 151.0 320.0 151.1Q319.8 151.2 319.6 151.2ZM322.8 141.0L324.2 141.0L324.1 148.3L322.9 148.3L322.8 141.0ZM323.5 151.2L323.5 151.2Q323.1 151.2 322.8 151.0Q322.6 150.7 322.6 150.3L322.6 150.3Q322.6 150.0 322.8 149.7Q323.1 149.4 323.5 149.4L323.5 149.4Q323.8 149.4 324.1 149.7Q324.4 150.0 324.4 150.3L324.4 150.3Q324.4 150.6 324.3 150.8Q324.1 151.0 323.9 151.1Q323.7 151.2 323.5 151.2ZM335.2 145.8L335.2 145.8Q335.2 144.4 335.5 143.3Q335.8 142.1 336.5 141.0Q337.1 140.0 337.9 139.2L337.9 139.2L338.8 139.6Q338.0 140.4 337.4 141.4Q336.8 142.4 336.5 143.5Q336.2 144.6 336.2 145.8L336.2 145.8Q336.2 147.1 336.5 148.2Q336.8 149.3 337.4 150.2Q338.0 151.2 338.8 152.0L338.8 152.0L337.9 152.5Q337.1 151.6 336.5 150.6Q335.8 149.6 335.5 148.4Q335.2 147.2 335.2 145.8ZM341.9 151.1L340.7 151.1L340.7 141.0L344.1 141.0Q345.3 141.0 346.1 141.4Q346.8 141.8 347.2 142.5Q347.6 143.2 347.6 144.1L347.6 144.1Q347.6 145.0 347.2 145.7Q346.8 146.4 346.1 146.8Q345.3 147.2 344.1 147.2L344.1 147.2L341.3 147.2L341.3 146.0L344.1 146.0Q344.9 146.0 345.4 145.8Q345.9 145.6 346.1 145.1Q346.3 144.7 346.3 144.1L346.3 144.1Q346.3 143.5 346.1 143.0Q345.9 142.6 345.4 142.3Q344.9 142.0 344.1 142.0L344.1 142.0L341.9 142.0L341.9 151.1ZM344.1 146.6L345.5 146.6L348.0 151.1L346.5 151.1L344.1 146.6ZM350.6 151.1L349.5 151.1L349.5 143.5L350.6 143.5L350.6 151.1ZM350.0 142.2L350.0 142.2Q349.7 142.2 349.5 142.0Q349.2 141.8 349.2 141.4L349.2 141.4Q349.2 141.1 349.5 140.9Q349.7 140.6 350.0 140.6L350.0 140.6Q350.4 140.6 350.6 140.9Q350.9 141.1 350.9 141.4L350.9 141.4Q350.9 141.8 350.6 142.0Q350.4 142.2 350.0 142.2ZM355.9 151.3L355.9 151.3Q354.8 151.3 354.0 150.8Q353.2 150.3 352.8 149.4Q352.4 148.5 352.4 147.4L352.4 147.4Q352.4 146.2 352.8 145.3Q353.3 144.4 354.0 143.9Q354.8 143.4 355.9 143.4L355.9 143.4Q356.7 143.4 357.3 143.7Q358.0 144.0 358.4 144.5Q358.8 145.1 358.9 145.8L358.9 145.8L357.7 145.8Q357.6 145.3 357.1 144.9Q356.7 144.5 355.9 144.5L355.9 144.5Q355.2 144.5 354.7 144.8Q354.2 145.2 353.9 145.8Q353.6 146.5 353.6 147.3L353.6 147.3Q353.6 148.2 353.9 148.9Q354.1 149.5 354.7 149.9Q355.2 150.2 355.9 150.2L355.9 150.2Q356.3 150.2 356.7 150.1Q357.1 149.9 357.3 149.6Q357.6 149.3 357.7 148.9L357.7 148.9L358.9 148.9Q358.8 149.6 358.4 150.1Q358.0 150.7 357.4 151.0Q356.7 151.3 355.9 151.3ZM361.8 146.5L361.8 146.5L361.8 151.1L360.6 151.1L360.6 141.0L361.8 141.0L361.8 144.7L361.9 144.7Q362.1 144.1 362.7 143.8Q363.2 143.4 364.1 143.4L364.1 143.4Q364.9 143.4 365.5 143.7Q366.1 144.0 366.4 144.7Q366.7 145.3 366.7 146.3L366.7 146.3L366.7 151.1L365.5 151.1L365.5 146.4Q365.5 145.5 365.1 145.0Q364.6 144.5 363.8 144.5L363.8 144.5Q363.2 144.5 362.7 144.7Q362.3 144.9 362.0 145.4Q361.8 145.9 361.8 146.5ZM371.1 151.3L371.1 151.3Q370.4 151.3 369.8 151.0Q369.2 150.8 368.9 150.2Q368.5 149.7 368.5 149.0L368.5 149.0Q368.5 148.3 368.8 147.9Q369.0 147.5 369.5 147.3Q369.9 147.0 370.4 146.9Q370.9 146.8 371.5 146.7L371.5 146.7Q372.2 146.6 372.6 146.6Q373.0 146.5 373.2 146.4Q373.4 146.3 373.4 146.0L373.4 146.0L373.4 146.0Q373.4 145.3 373.0 144.8Q372.6 144.4 371.8 144.4L371.8 144.4Q371.0 144.4 370.5 144.8Q370.0 145.2 369.8 145.6L369.8 145.6L368.7 145.2Q369.0 144.5 369.5 144.1Q370.0 143.7 370.6 143.6Q371.2 143.4 371.8 143.4L371.8 143.4Q372.2 143.4 372.6 143.5Q373.1 143.6 373.6 143.8Q374.0 144.1 374.3 144.7Q374.6 145.2 374.6 146.1L374.6 146.1L374.6 151.1L373.4 151.1L373.4 150.1L373.4 150.1Q373.3 150.4 373.0 150.6Q372.7 150.9 372.2 151.1Q371.8 151.3 371.1 151.3ZM371.3 150.3L371.3 150.3Q372.0 150.3 372.5 150.0Q372.9 149.7 373.2 149.3Q373.4 148.9 373.4 148.4L373.4 148.4L373.4 147.3Q373.4 147.4 373.1 147.5Q372.9 147.5 372.5 147.6Q372.2 147.6 371.9 147.7Q371.6 147.7 371.4 147.7L371.4 147.7Q370.9 147.8 370.6 147.9Q370.2 148.1 369.9 148.3Q369.7 148.6 369.7 149.0L369.7 149.0Q369.7 149.6 370.1 150.0Q370.6 150.3 371.3 150.3ZM379.0 151.3L379.0 151.3Q378.3 151.3 377.7 151.0Q377.1 150.8 376.7 150.2Q376.4 149.7 376.4 149.0L376.4 149.0Q376.4 148.3 376.7 147.9Q376.9 147.5 377.3 147.3Q377.8 147.0 378.3 146.9Q378.8 146.8 379.4 146.7L379.4 146.7Q380.1 146.6 380.5 146.6Q380.9 146.5 381.1 146.4Q381.3 146.3 381.3 146.0L381.3 146.0L381.3 146.0Q381.3 145.3 380.9 144.8Q380.5 144.4 379.7 144.4L379.7 144.4Q378.9 144.4 378.4 144.8Q377.9 145.2 377.7 145.6L377.7 145.6L376.6 145.2Q376.9 144.5 377.4 144.1Q377.9 143.7 378.5 143.6Q379.1 143.4 379.7 143.4L379.7 143.4Q380.0 143.4 380.5 143.5Q381.0 143.6 381.5 143.8Q381.9 144.1 382.2 144.7Q382.5 145.2 382.5 146.1L382.5 146.1L382.5 151.1L381.3 151.1L381.3 150.1L381.3 150.1Q381.2 150.4 380.9 150.6Q380.6 150.9 380.1 151.1Q379.7 151.3 379.0 151.3ZM379.2 150.3L379.2 150.3Q379.9 150.3 380.4 150.0Q380.8 149.7 381.1 149.3Q381.3 148.9 381.3 148.4L381.3 148.4L381.3 147.3Q381.3 147.4 381.0 147.5Q380.8 147.5 380.4 147.6Q380.1 147.6 379.8 147.7Q379.5 147.7 379.3 147.7L379.3 147.7Q378.8 147.8 378.4 147.9Q378.1 148.1 377.8 148.3Q377.6 148.6 377.6 149.0L377.6 149.0Q377.6 149.6 378.0 150.0Q378.5 150.3 379.2 150.3ZM387.5 151.3L387.5 151.3Q386.6 151.3 385.8 150.8Q385.1 150.3 384.7 149.4Q384.3 148.6 384.3 147.3L384.3 147.3Q384.3 146.1 384.7 145.3Q385.1 144.4 385.9 143.9Q386.6 143.4 387.6 143.4L387.6 143.4Q388.3 143.4 388.7 143.6Q389.2 143.9 389.4 144.2Q389.6 144.5 389.8 144.7L389.8 144.7L389.9 144.7L389.9 141.0L391.0 141.0L391.0 151.1L389.9 151.1L389.9 150.0L389.8 150.0Q389.6 150.2 389.4 150.5Q389.2 150.8 388.7 151.1Q388.3 151.3 387.5 151.3ZM387.7 150.2L387.7 150.2Q388.4 150.2 388.9 149.9Q389.4 149.5 389.6 148.8Q389.9 148.2 389.9 147.3L389.9 147.3Q389.9 146.5 389.6 145.8Q389.4 145.2 388.9 144.8Q388.4 144.5 387.7 144.5L387.7 144.5Q386.9 144.5 386.5 144.8Q386.0 145.2 385.7 145.9Q385.5 146.5 385.5 147.3L385.5 147.3Q385.5 148.1 385.7 148.8Q386.0 149.5 386.5 149.9Q387.0 150.2 387.7 150.2ZM399.7 151.1L393.5 151.1L393.5 141.0L399.6 141.0L399.6 142.0L394.7 142.0L394.7 145.5L399.3 145.5L399.3 146.6L394.7 146.6L394.7 150.0L399.7 150.0L399.7 151.1ZM405.6 151.1L401.9 151.1L401.9 141.0L405.4 141.0Q406.5 141.0 407.2 141.3Q407.9 141.7 408.2 142.3Q408.6 142.9 408.6 143.7L408.6 143.7Q408.6 144.3 408.3 144.7Q408.1 145.2 407.7 145.4Q407.3 145.7 406.9 145.8L406.9 145.8L406.9 145.9Q407.4 145.9 407.8 146.2Q408.3 146.5 408.6 147.1Q409.0 147.6 409.0 148.4L409.0 148.4Q409.0 149.2 408.6 149.8Q408.3 150.4 407.5 150.8Q406.8 151.1 405.6 151.1L405.6 151.1ZM403.1 146.5L403.1 150.0L405.6 150.0Q406.8 150.0 407.3 149.6Q407.8 149.1 407.8 148.4L407.8 148.4Q407.8 147.9 407.5 147.5Q407.3 147.0 406.8 146.8Q406.3 146.5 405.6 146.5L405.6 146.5L403.1 146.5ZM403.1 142.0L403.1 145.4L405.4 145.4Q405.9 145.4 406.4 145.2Q406.8 145.0 407.1 144.6Q407.4 144.2 407.4 143.7L407.4 143.7Q407.4 143.0 406.9 142.5Q406.4 142.0 405.4 142.0L405.4 142.0L403.1 142.0ZM414.0 145.8L414.0 145.8Q414.0 147.2 413.7 148.4Q413.3 149.6 412.7 150.6Q412.1 151.6 411.2 152.5L411.2 152.5L410.4 152.0Q411.2 151.2 411.8 150.2Q412.4 149.3 412.7 148.2Q413.0 147.1 413.0 145.8L413.0 145.8Q413.0 144.6 412.7 143.5Q412.4 142.4 411.8 141.4Q411.2 140.4 410.4 139.6L410.4 139.6L411.2 139.2Q412.1 140.0 412.7 141.0Q413.3 142.1 413.7 143.3Q414.0 144.4 414.0 145.8Z "/><defs><clipPath id="satori_bc-id-0-1-1-2"><rect x="234" y="169" width="238" height="39"/></clipPath></defs><mask id="satori_om-id-0-1-1-2"><rect x="234" y="169" width="238" height="38" fill="#fff"/><path width="238" height="39" fill="none" stroke="#000" stroke-width="2" d="M472,208 A0,0 0 0 1 472,208 h-238 A0,0 0 0 1 234,208"/></mask><rect x="234" y="169" width="238" height="39" fill="rgb(245 158 11)"/><path width="238" height="39" clip-path="url(#satori_bc-id-0-1-1-2)" fill="none" stroke="rgb(209 213 219)" stroke-width="2" d="M472,208 A0,0 0 0 1 472,208 h-238 A0,0 0 0 1 234,208"/><path fill="black" d="M254.9 192.6L251.2 192.6L251.2 182.4L254.8 182.4Q255.9 182.4 256.5 182.8Q257.2 183.2 257.6 183.8Q257.9 184.4 257.9 185.1L257.9 185.1Q257.9 185.8 257.7 186.2Q257.5 186.6 257.1 186.9Q256.7 187.1 256.3 187.3L256.3 187.3L256.3 187.4Q256.7 187.4 257.2 187.7Q257.7 188.0 258.0 188.5Q258.3 189.1 258.3 189.9L258.3 189.9Q258.3 190.7 258.0 191.3Q257.6 191.9 256.9 192.3Q256.1 192.6 254.9 192.6L254.9 192.6ZM252.5 188.0L252.5 191.5L254.9 191.5Q256.1 191.5 256.6 191.1Q257.1 190.6 257.1 189.9L257.1 189.9Q257.1 189.4 256.9 189.0Q256.6 188.5 256.1 188.2Q255.6 188.0 255.0 188.0L255.0 188.0L252.5 188.0ZM252.5 183.5L252.5 186.9L254.8 186.9Q255.3 186.9 255.8 186.7Q256.2 186.5 256.5 186.1Q256.7 185.7 256.7 185.1L256.7 185.1Q256.7 184.5 256.3 184.0Q255.8 183.5 254.8 183.5L254.8 183.5L252.5 183.5ZM262.4 192.8L262.4 192.8Q261.7 192.8 261.1 192.5Q260.5 192.2 260.2 191.7Q259.8 191.2 259.8 190.4L259.8 190.4Q259.8 189.8 260.1 189.4Q260.3 189.0 260.8 188.7Q261.2 188.5 261.7 188.4Q262.3 188.3 262.8 188.2L262.8 188.2Q263.5 188.1 263.9 188.1Q264.4 188.0 264.6 187.9Q264.8 187.8 264.8 187.5L264.8 187.5L264.8 187.5Q264.8 186.7 264.4 186.3Q264.0 185.9 263.1 185.9L263.1 185.9Q262.3 185.9 261.8 186.3Q261.4 186.6 261.2 187.1L261.2 187.1L260.0 186.7Q260.3 186.0 260.8 185.6Q261.3 185.2 261.9 185.0Q262.5 184.9 263.1 184.9L263.1 184.9Q263.5 184.9 264.0 185.0Q264.4 185.1 264.9 185.3Q265.3 185.6 265.6 186.1Q265.9 186.7 265.9 187.6L265.9 187.6L265.9 192.6L264.8 192.6L264.8 191.6L264.7 191.6Q264.6 191.8 264.3 192.1Q264.0 192.4 263.6 192.6Q263.1 192.8 262.4 192.8ZM262.6 191.7L262.6 191.7Q263.3 191.7 263.8 191.5Q264.3 191.2 264.5 190.8Q264.8 190.3 264.8 189.8L264.8 189.8L264.8 188.8Q264.7 188.9 264.4 188.9Q264.2 189.0 263.9 189.1Q263.5 189.1 263.2 189.2Q262.9 189.2 262.7 189.2L262.7 189.2Q262.3 189.3 261.9 189.4Q261.5 189.5 261.2 189.8Q261.0 190.1 261.0 190.5L261.0 190.5Q261.0 191.1 261.5 191.4Q261.9 191.7 262.6 191.7ZM271.0 192.8L271.0 192.8Q270.0 192.8 269.3 192.3Q268.5 191.8 268.1 190.9Q267.7 190.0 267.7 188.8L267.7 188.8Q267.7 187.6 268.1 186.7Q268.5 185.8 269.3 185.4Q270.0 184.9 271.0 184.9L271.0 184.9Q271.7 184.9 272.2 185.1Q272.6 185.4 272.8 185.7Q273.1 186.0 273.2 186.2L273.2 186.2L273.3 186.2L273.3 182.4L274.5 182.4L274.5 192.6L273.3 192.6L273.3 191.4L273.2 191.4Q273.1 191.6 272.8 192.0Q272.6 192.3 272.1 192.5Q271.7 192.8 271.0 192.8ZM271.1 191.7L271.1 191.7Q271.8 191.7 272.3 191.3Q272.8 191.0 273.1 190.3Q273.3 189.7 273.3 188.8L273.3 188.8Q273.3 187.9 273.1 187.3Q272.8 186.7 272.3 186.3Q271.8 185.9 271.1 185.9L271.1 185.9Q270.4 185.9 269.9 186.3Q269.4 186.7 269.1 187.3Q268.9 188.0 268.9 188.8L268.9 188.8Q268.9 189.6 269.1 190.3Q269.4 190.9 269.9 191.3Q270.4 191.7 271.1 191.7Z M284.3 184.0L281.3 192.6L280.0 192.6L283.7 182.4L285 182.4L288.7 192.6L287.4 192.6L284.4 184.0L284.3 184.0ZM281.8 189.7L281.8 188.6L287.0 188.6L287.0 189.7L281.8 189.7ZM291.3 195.5L290.2 195.5L290.2 185.0L291.3 185.0L291.3 186.2L291.4 186.2Q291.6 186.0 291.8 185.7Q292.0 185.4 292.5 185.1Q292.9 184.9 293.7 184.9L293.7 184.9Q294.6 184.9 295.4 185.4Q296.1 185.8 296.5 186.7Q296.9 187.6 296.9 188.8L296.9 188.8Q296.9 190.0 296.5 190.9Q296.1 191.8 295.4 192.3Q294.6 192.8 293.7 192.8L293.7 192.8Q292.9 192.8 292.5 192.5Q292.0 192.3 291.8 192.0Q291.6 191.6 291.4 191.4L291.4 191.4L291.3 191.4L291.3 195.5ZM291.3 188.8L291.3 188.8Q291.3 189.7 291.6 190.3Q291.8 191.0 292.3 191.3Q292.8 191.7 293.5 191.7L293.5 191.7Q294.2 191.7 294.7 191.3Q295.2 190.9 295.5 190.3Q295.7 189.6 295.7 188.8L295.7 188.8Q295.7 188.0 295.5 187.3Q295.2 186.7 294.8 186.3Q294.3 185.9 293.5 185.9L293.5 185.9Q292.8 185.9 292.3 186.3Q291.8 186.7 291.6 187.3Q291.3 187.9 291.3 188.8ZM299.9 195.5L298.7 195.5L298.7 185.0L299.8 185.0L299.8 186.2L300.0 186.2Q300.1 186.0 300.3 185.7Q300.6 185.4 301.0 185.1Q301.4 184.9 302.2 184.9L302.2 184.9Q303.1 184.9 303.9 185.4Q304.6 185.8 305.0 186.7Q305.4 187.6 305.4 188.8L305.4 188.8Q305.4 190.0 305.0 190.9Q304.6 191.8 303.9 192.3Q303.2 192.8 302.2 192.8L302.2 192.8Q301.5 192.8 301.0 192.5Q300.6 192.3 300.3 192.0Q300.1 191.6 300.0 191.4L300.0 191.4L299.9 191.4L299.9 195.5ZM299.9 188.8L299.9 188.8Q299.9 189.7 300.1 190.3Q300.4 191.0 300.8 191.3Q301.3 191.7 302.0 191.7L302.0 191.7Q302.8 191.7 303.3 191.3Q303.8 190.9 304.0 190.3Q304.3 189.6 304.3 188.8L304.3 188.8Q304.3 188.0 304.0 187.3Q303.8 186.7 303.3 186.3Q302.8 185.9 302.0 185.9L302.0 185.9Q301.3 185.9 300.8 186.3Q300.4 186.7 300.1 187.3Q299.9 187.9 299.9 188.8ZM307.2 182.4L308.4 182.4L308.4 192.6L307.2 192.6L307.2 182.4ZM313.8 192.8L313.8 192.8Q312.7 192.8 311.9 192.3Q311.1 191.8 310.6 190.9Q310.2 190.0 310.2 188.9L310.2 188.9Q310.2 187.7 310.6 186.8Q311.1 185.9 311.8 185.4Q312.6 184.9 313.6 184.9L313.6 184.9Q314.2 184.9 314.8 185.1Q315.4 185.3 315.9 185.7Q316.4 186.2 316.6 186.9Q316.9 187.6 316.9 188.7L316.9 188.7L316.9 189.2L311.0 189.2L311.0 188.2L315.7 188.2Q315.7 187.5 315.5 187.0Q315.2 186.5 314.7 186.2Q314.3 185.9 313.6 185.9L313.6 185.9Q312.9 185.9 312.4 186.3Q311.9 186.6 311.6 187.2Q311.4 187.7 311.4 188.4L311.4 188.4L311.4 189.0Q311.4 189.9 311.7 190.5Q312.0 191.1 312.5 191.4Q313.0 191.7 313.8 191.7L313.8 191.7Q314.2 191.7 314.6 191.6Q315.0 191.5 315.2 191.2Q315.5 190.9 315.7 190.5L315.7 190.5L316.8 190.8Q316.6 191.4 316.2 191.9Q315.8 192.3 315.2 192.5Q314.5 192.8 313.8 192.8ZM318.9 182.4L320.3 182.4L320.2 189.8L319.0 189.8L318.9 182.4ZM319.6 192.7L319.6 192.7Q319.2 192.7 319.0 192.4Q318.7 192.2 318.7 191.8L318.7 191.8Q318.7 191.4 319.0 191.2Q319.2 190.9 319.6 190.9L319.6 190.9Q320.0 190.9 320.2 191.2Q320.5 191.4 320.5 191.8L320.5 191.8Q320.5 192.0 320.4 192.2Q320.2 192.5 320.0 192.6Q319.8 192.7 319.6 192.7ZM322.8 182.4L324.2 182.4L324.1 189.8L322.9 189.8L322.8 182.4ZM323.5 192.7L323.5 192.7Q323.1 192.7 322.8 192.4Q322.6 192.2 322.6 191.8L322.6 191.8Q322.6 191.4 322.8 191.2Q323.1 190.9 323.5 190.9L323.5 190.9Q323.8 190.9 324.1 191.2Q324.4 191.4 324.4 191.8L324.4 191.8Q324.4 192.0 324.3 192.2Q324.1 192.5 323.9 192.6Q323.7 192.7 323.5 192.7Z M329.7 185.0L333.8 185.0L333.8 186.0L329.7 186.0L329.7 185.0ZM332.1 192.6L331.0 192.6L331.0 183.9Q331.0 183.3 331.3 182.8Q331.6 182.4 332.1 182.2Q332.6 182.0 333.1 182.0L333.1 182.0Q333.5 182.0 333.8 182.0Q334.1 182.1 334.2 182.2L334.2 182.2L333.9 183.2Q333.8 183.1 333.6 183.1Q333.5 183.0 333.2 183.0L333.2 183.0Q332.6 183.0 332.4 183.3Q332.1 183.6 332.1 184.2L332.1 184.2L332.1 192.6ZM338.4 192.8L338.4 192.8Q337.3 192.8 336.5 192.3Q335.7 191.8 335.2 190.9Q334.8 190.0 334.8 188.9L334.8 188.9Q334.8 187.7 335.2 186.8Q335.7 185.9 336.4 185.4Q337.2 184.9 338.3 184.9L338.3 184.9Q338.9 184.9 339.4 185.1Q340.0 185.3 340.5 185.7Q341.0 186.2 341.3 186.9Q341.5 187.6 341.5 188.7L341.5 188.7L341.5 189.2L335.7 189.2L335.7 188.2L340.3 188.2Q340.3 187.5 340.1 187.0Q339.8 186.5 339.4 186.2Q338.9 185.9 338.3 185.9L338.3 185.9Q337.6 185.9 337.0 186.3Q336.5 186.6 336.3 187.2Q336.0 187.7 336.0 188.4L336.0 188.4L336.0 189.0Q336.0 189.9 336.3 190.5Q336.6 191.1 337.1 191.4Q337.7 191.7 338.4 191.7L338.4 191.7Q338.8 191.7 339.2 191.6Q339.6 191.5 339.9 191.2Q340.1 190.9 340.3 190.5L340.3 190.5L341.4 190.8Q341.2 191.4 340.8 191.9Q340.4 192.3 339.8 192.5Q339.2 192.8 338.4 192.8ZM345.6 192.8L345.6 192.8Q344.8 192.8 344.3 192.5Q343.7 192.2 343.3 191.7Q343.0 191.2 343.0 190.4L343.0 190.4Q343.0 189.8 343.2 189.4Q343.5 189.0 343.9 188.7Q344.4 188.5 344.9 188.4Q345.4 188.3 345.9 188.2L345.9 188.2Q346.6 188.1 347.1 188.1Q347.5 188.0 347.7 187.9Q347.9 187.8 347.9 187.5L347.9 187.5L347.9 187.5Q347.9 186.7 347.5 186.3Q347.1 185.9 346.3 185.9L346.3 185.9Q345.4 185.9 345.0 186.3Q344.5 186.6 344.3 187.1L344.3 187.1L343.2 186.7Q343.5 186.0 344.0 185.6Q344.5 185.2 345.1 185.0Q345.7 184.9 346.2 184.9L346.2 184.9Q346.6 184.9 347.1 185.0Q347.6 185.1 348.0 185.3Q348.5 185.6 348.8 186.1Q349.1 186.7 349.1 187.6L349.1 187.6L349.1 192.6L347.9 192.6L347.9 191.6L347.8 191.6Q347.7 191.8 347.4 192.1Q347.2 192.4 346.7 192.6Q346.2 192.8 345.6 192.8ZM345.8 191.7L345.8 191.7Q346.4 191.7 346.9 191.5Q347.4 191.2 347.7 190.8Q347.9 190.3 347.9 189.8L347.9 189.8L347.9 188.8Q347.8 188.9 347.6 188.9Q347.3 189.0 347.0 189.1Q346.7 189.1 346.4 189.2Q346.1 189.2 345.9 189.2L345.9 189.2Q345.4 189.3 345.0 189.4Q344.6 189.5 344.4 189.8Q344.1 190.1 344.1 190.5L344.1 190.5Q344.1 191.1 344.6 191.4Q345.1 191.7 345.8 191.7ZM350.6 185.0L354.5 185.0L354.5 186.0L350.6 186.0L350.6 185.0ZM351.7 190.7L351.7 183.1L352.9 183.1L352.9 190.4Q352.9 190.9 353.1 191.2Q353.2 191.4 353.4 191.5Q353.7 191.6 353.9 191.6L353.9 191.6Q354.1 191.6 354.2 191.6Q354.4 191.5 354.4 191.5L354.4 191.5L354.7 192.6Q354.6 192.6 354.3 192.7Q354.1 192.7 353.8 192.7L353.8 192.7Q353.3 192.7 352.8 192.5Q352.4 192.3 352.0 191.8Q351.7 191.4 351.7 190.7L351.7 190.7ZM357.2 192.7L357.2 192.7Q356.8 192.7 356.5 192.4Q356.3 192.2 356.3 191.8L356.3 191.8Q356.3 191.4 356.5 191.2Q356.8 190.9 357.2 190.9L357.2 190.9Q357.5 190.9 357.8 191.2Q358.1 191.4 358.1 191.8L358.1 191.8Q358.1 192.0 357.9 192.2Q357.8 192.5 357.6 192.6Q357.4 192.7 357.2 192.7Z M365.6 188.0L365.6 188.0L365.6 192.6L364.4 192.6L364.4 185.0L365.6 185.0L365.6 186.2L365.7 186.2Q365.9 185.6 366.5 185.2Q367.0 184.9 367.9 184.9L367.9 184.9Q368.7 184.9 369.2 185.2Q369.8 185.5 370.1 186.1Q370.5 186.8 370.5 187.8L370.5 187.8L370.5 192.6L369.3 192.6L369.3 187.8Q369.3 186.9 368.8 186.4Q368.4 185.9 367.5 185.9L367.5 185.9Q367.0 185.9 366.5 186.2Q366.1 186.4 365.9 186.9Q365.6 187.4 365.6 188.0ZM375.7 192.8L375.7 192.8Q374.7 192.8 373.9 192.3Q373.1 191.8 372.7 190.9Q372.3 190.0 372.3 188.8L372.3 188.8Q372.3 187.6 372.7 186.8Q373.1 185.9 373.9 185.4Q374.7 184.9 375.7 184.9L375.7 184.9Q376.8 184.9 377.5 185.4Q378.3 185.9 378.7 186.8Q379.2 187.6 379.2 188.8L379.2 188.8Q379.2 190.0 378.7 190.9Q378.3 191.8 377.5 192.3Q376.8 192.8 375.7 192.8ZM375.7 191.7L375.7 191.7Q376.5 191.7 377.0 191.3Q377.5 190.9 377.8 190.3Q378.0 189.6 378.0 188.8L378.0 188.8Q378.0 188.1 377.8 187.4Q377.5 186.7 377.0 186.3Q376.5 185.9 375.7 185.9L375.7 185.9Q374.9 185.9 374.4 186.3Q373.9 186.7 373.7 187.4Q373.4 188.1 373.4 188.8L373.4 188.8Q373.4 189.6 373.7 190.3Q373.9 190.9 374.4 191.3Q374.9 191.7 375.7 191.7ZM382.1 192.6L381.0 192.6L381.0 185.0L382.1 185.0L382.1 186.2L382.2 186.2Q382.4 185.6 383.0 185.2Q383.5 184.9 384.3 184.9L384.3 184.9Q385.0 184.9 385.5 185.2Q386.0 185.6 386.3 186.2L386.3 186.2L386.4 186.2Q386.7 185.6 387.3 185.2Q387.8 184.9 388.7 184.9L388.7 184.9Q389.7 184.9 390.3 185.5Q391.0 186.2 391.0 187.5L391.0 187.5L391.0 192.6L389.8 192.6L389.8 187.5Q389.8 186.7 389.4 186.3Q388.9 185.9 388.3 185.9L388.3 185.9Q387.5 185.9 387.0 186.4Q386.6 186.9 386.6 187.6L386.6 187.6L386.6 192.6L385.4 192.6L385.4 187.4Q385.4 186.7 385.0 186.3Q384.5 185.9 383.9 185.9L383.9 185.9Q383.4 185.9 383.0 186.2Q382.6 186.4 382.4 186.8Q382.1 187.3 382.1 187.8L382.1 187.8L382.1 192.6ZM394.3 192.6L393.1 192.6L393.1 185.0L394.3 185.0L394.3 192.6ZM393.7 183.7L393.7 183.7Q393.4 183.7 393.1 183.5Q392.9 183.2 392.9 182.9L392.9 182.9Q392.9 182.6 393.1 182.3Q393.4 182.1 393.7 182.1L393.7 182.1Q394.1 182.1 394.3 182.3Q394.6 182.6 394.6 182.9L394.6 182.9Q394.6 183.2 394.3 183.5Q394.1 183.7 393.7 183.7ZM399.6 192.8L399.6 192.8Q398.5 192.8 397.7 192.3Q396.9 191.8 396.5 190.9Q396.1 190.0 396.1 188.8L396.1 188.8Q396.1 187.7 396.5 186.8Q397.0 185.9 397.7 185.4Q398.5 184.9 399.5 184.9L399.5 184.9Q400.4 184.9 401.0 185.2Q401.6 185.5 402.1 186.0Q402.5 186.5 402.6 187.3L402.6 187.3L401.4 187.3Q401.3 186.7 400.8 186.3Q400.3 185.9 399.6 185.9L399.6 185.9Q398.9 185.9 398.4 186.3Q397.9 186.6 397.6 187.3Q397.3 187.9 397.3 188.8L397.3 188.8Q397.3 189.7 397.6 190.3Q397.8 191.0 398.4 191.4Q398.9 191.7 399.6 191.7L399.6 191.7Q400.0 191.7 400.4 191.6Q400.8 191.4 401.0 191.1Q401.3 190.8 401.4 190.4L401.4 190.4L402.6 190.4Q402.5 191.1 402.1 191.6Q401.7 192.1 401.0 192.5Q400.4 192.8 399.6 192.8ZM407.4 192.8L407.4 192.8Q406.3 192.8 405.6 192.3Q404.8 191.8 404.4 190.9Q403.9 190.0 403.9 188.8L403.9 188.8Q403.9 187.6 404.4 186.8Q404.8 185.9 405.6 185.4Q406.3 184.9 407.4 184.9L407.4 184.9Q408.4 184.9 409.2 185.4Q410.0 185.9 410.4 186.8Q410.8 187.6 410.8 188.8L410.8 188.8Q410.8 190.0 410.4 190.9Q410.0 191.8 409.2 192.3Q408.4 192.8 407.4 192.8ZM407.4 191.7L407.4 191.7Q408.2 191.7 408.7 191.3Q409.2 190.9 409.4 190.3Q409.7 189.6 409.7 188.8L409.7 188.8Q409.7 188.1 409.4 187.4Q409.2 186.7 408.7 186.3Q408.2 185.9 407.4 185.9L407.4 185.9Q406.6 185.9 406.1 186.3Q405.6 186.7 405.3 187.4Q405.1 188.1 405.1 188.8L405.1 188.8Q405.1 189.6 405.3 190.3Q405.6 190.9 406.1 191.3Q406.6 191.7 407.4 191.7Z "/><mask id="satori_om-id-0-1-1-3"><rect x="234" y="208" width="238" height="64" fill="#fff"/></mask><path fill="black" d="M254.9 234.1L251.2 234.1L251.2 224.0L254.8 224.0Q255.9 224.0 256.5 224.3Q257.2 224.7 257.6 225.3Q257.9 225.9 257.9 226.7L257.9 226.7Q257.9 227.3 257.7 227.7Q257.5 228.2 257.1 228.4Q256.7 228.7 256.3 228.8L256.3 228.8L256.3 228.9Q256.7 228.9 257.2 229.2Q257.7 229.5 258.0 230.1Q258.3 230.6 258.3 231.4L258.3 231.4Q258.3 232.2 258.0 232.8Q257.6 233.4 256.9 233.8Q256.1 234.1 254.9 234.1L254.9 234.1ZM252.5 229.5L252.5 233.0L254.9 233.0Q256.1 233.0 256.6 232.6Q257.1 232.1 257.1 231.4L257.1 231.4Q257.1 230.9 256.9 230.5Q256.6 230.0 256.1 229.8Q255.6 229.5 255.0 229.5L255.0 229.5L252.5 229.5ZM252.5 225.0L252.5 228.4L254.8 228.4Q255.3 228.4 255.8 228.2Q256.2 228.0 256.5 227.6Q256.7 227.2 256.7 226.7L256.7 226.7Q256.7 226.0 256.3 225.5Q255.8 225.0 254.8 225.0L254.8 225.0L252.5 225.0ZM262.4 234.3L262.4 234.3Q261.7 234.3 261.1 234.0Q260.5 233.8 260.2 233.2Q259.8 232.7 259.8 232.0L259.8 232.0Q259.8 231.3 260.1 230.9Q260.3 230.5 260.8 230.3Q261.2 230.0 261.7 229.9Q262.3 229.8 262.8 229.7L262.8 229.7Q263.5 229.6 263.9 229.6Q264.4 229.5 264.6 229.4Q264.8 229.3 264.8 229.0L264.8 229.0L264.8 229.0Q264.8 228.3 264.4 227.8Q264.0 227.4 263.1 227.4L263.1 227.4Q262.3 227.4 261.8 227.8Q261.4 228.2 261.2 228.6L261.2 228.6L260.0 228.2Q260.3 227.5 260.8 227.1Q261.3 226.7 261.9 226.6Q262.5 226.4 263.1 226.4L263.1 226.4Q263.5 226.4 264.0 226.5Q264.4 226.6 264.9 226.8Q265.3 227.1 265.6 227.7Q265.9 228.2 265.9 229.1L265.9 229.1L265.9 234.1L264.8 234.1L264.8 233.1L264.7 233.1Q264.6 233.4 264.3 233.6Q264.0 233.9 263.6 234.1Q263.1 234.3 262.4 234.3ZM262.6 233.3L262.6 233.3Q263.3 233.3 263.8 233.0Q264.3 232.7 264.5 232.3Q264.8 231.9 264.8 231.4L264.8 231.4L264.8 230.3Q264.7 230.4 264.4 230.5Q264.2 230.5 263.9 230.6Q263.5 230.6 263.2 230.7Q262.9 230.7 262.7 230.7L262.7 230.7Q262.3 230.8 261.9 230.9Q261.5 231.1 261.2 231.3Q261.0 231.6 261.0 232.0L261.0 232.0Q261.0 232.6 261.5 233.0Q261.9 233.3 262.6 233.3ZM271.0 234.3L271.0 234.3Q270.0 234.3 269.3 233.8Q268.5 233.3 268.1 232.4Q267.7 231.6 267.7 230.3L267.7 230.3Q267.7 229.1 268.1 228.3Q268.5 227.4 269.3 226.9Q270.0 226.4 271.0 226.4L271.0 226.4Q271.7 226.4 272.2 226.6Q272.6 226.9 272.8 227.2Q273.1 227.5 273.2 227.7L273.2 227.7L273.3 227.7L273.3 224.0L274.5 224.0L274.5 234.1L273.3 234.1L273.3 233.0L273.2 233.0Q273.1 233.2 272.8 233.5Q272.6 233.8 272.1 234.1Q271.7 234.3 271.0 234.3ZM271.1 233.2L271.1 233.2Q271.8 233.2 272.3 232.9Q272.8 232.5 273.1 231.8Q273.3 231.2 273.3 230.3L273.3 230.3Q273.3 229.5 273.1 228.8Q272.8 228.2 272.3 227.8Q271.8 227.5 271.1 227.5L271.1 227.5Q270.4 227.5 269.9 227.8Q269.4 228.2 269.1 228.9Q268.9 229.5 268.9 230.3L268.9 230.3Q268.9 231.1 269.1 231.8Q269.4 232.5 269.9 232.9Q270.4 233.2 271.1 233.2Z M284.3 225.6L281.3 234.1L280.0 234.1L283.7 224.0L285 224.0L288.7 234.1L287.4 234.1L284.4 225.6L284.3 225.6ZM281.8 231.3L281.8 230.2L287.0 230.2L287.0 231.3L281.8 231.3ZM291.3 237.0L290.2 237.0L290.2 226.5L291.3 226.5L291.3 227.7L291.4 227.7Q291.6 227.5 291.8 227.2Q292.0 226.9 292.5 226.6Q292.9 226.4 293.7 226.4L293.7 226.4Q294.6 226.4 295.4 226.9Q296.1 227.4 296.5 228.3Q296.9 229.1 296.9 230.3L296.9 230.3Q296.9 231.6 296.5 232.4Q296.1 233.3 295.4 233.8Q294.6 234.3 293.7 234.3L293.7 234.3Q292.9 234.3 292.5 234.1Q292.0 233.8 291.8 233.5Q291.6 233.2 291.4 233.0L291.4 233.0L291.3 233.0L291.3 237.0ZM291.3 230.3L291.3 230.3Q291.3 231.2 291.6 231.8Q291.8 232.5 292.3 232.9Q292.8 233.2 293.5 233.2L293.5 233.2Q294.2 233.2 294.7 232.9Q295.2 232.5 295.5 231.8Q295.7 231.1 295.7 230.3L295.7 230.3Q295.7 229.5 295.5 228.9Q295.2 228.2 294.8 227.8Q294.3 227.5 293.5 227.5L293.5 227.5Q292.8 227.5 292.3 227.8Q291.8 228.2 291.6 228.8Q291.3 229.5 291.3 230.3ZM299.9 237.0L298.7 237.0L298.7 226.5L299.8 226.5L299.8 227.7L300.0 227.7Q300.1 227.5 300.3 227.2Q300.6 226.9 301.0 226.6Q301.4 226.4 302.2 226.4L302.2 226.4Q303.1 226.4 303.9 226.9Q304.6 227.4 305.0 228.3Q305.4 229.1 305.4 230.3L305.4 230.3Q305.4 231.6 305.0 232.4Q304.6 233.3 303.9 233.8Q303.2 234.3 302.2 234.3L302.2 234.3Q301.5 234.3 301.0 234.1Q300.6 233.8 300.3 233.5Q300.1 233.2 300.0 233.0L300.0 233.0L299.9 233.0L299.9 237.0ZM299.9 230.3L299.9 230.3Q299.9 231.2 300.1 231.8Q300.4 232.5 300.8 232.9Q301.3 233.2 302.0 233.2L302.0 233.2Q302.8 233.2 303.3 232.9Q303.8 232.5 304.0 231.8Q304.3 231.1 304.3 230.3L304.3 230.3Q304.3 229.5 304.0 228.9Q303.8 228.2 303.3 227.8Q302.8 227.5 302.0 227.5L302.0 227.5Q301.3 227.5 300.8 227.8Q300.4 228.2 300.1 228.8Q299.9 229.5 299.9 230.3ZM307.2 224.0L308.4 224.0L308.4 234.1L307.2 234.1L307.2 224.0ZM313.8 234.3L313.8 234.3Q312.7 234.3 311.9 233.8Q311.1 233.3 310.6 232.4Q310.2 231.6 310.2 230.4L310.2 230.4Q310.2 229.2 310.6 228.3Q311.1 227.4 311.8 226.9Q312.6 226.4 313.6 226.4L313.6 226.4Q314.2 226.4 314.8 226.6Q315.4 226.8 315.9 227.2Q316.4 227.7 316.6 228.4Q316.9 229.2 316.9 230.2L316.9 230.2L316.9 230.7L311.0 230.7L311.0 229.7L315.7 229.7Q315.7 229.1 315.5 228.5Q315.2 228.0 314.7 227.7Q314.3 227.5 313.6 227.5L313.6 227.5Q312.9 227.5 312.4 227.8Q311.9 228.1 311.6 228.7Q311.4 229.3 311.4 229.9L311.4 229.9L311.4 230.6Q311.4 231.4 311.7 232.0Q312.0 232.6 312.5 232.9Q313.0 233.2 313.8 233.2L313.8 233.2Q314.2 233.2 314.6 233.1Q315.0 233.0 315.2 232.7Q315.5 232.4 315.7 232.0L315.7 232.0L316.8 232.4Q316.6 232.9 316.2 233.4Q315.8 233.8 315.2 234.1Q314.5 234.3 313.8 234.3ZM318.9 224.0L320.3 224.0L320.2 231.3L319.0 231.3L318.9 224.0ZM319.6 234.2L319.6 234.2Q319.2 234.2 319.0 234.0Q318.7 233.7 318.7 233.3L318.7 233.3Q318.7 233.0 319.0 232.7Q319.2 232.4 319.6 232.4L319.6 232.4Q320.0 232.4 320.2 232.7Q320.5 233.0 320.5 233.3L320.5 233.3Q320.5 233.6 320.4 233.8Q320.2 234.0 320.0 234.1Q319.8 234.2 319.6 234.2ZM322.8 224.0L324.2 224.0L324.1 231.3L322.9 231.3L322.8 224.0ZM323.5 234.2L323.5 234.2Q323.1 234.2 322.8 234.0Q322.6 233.7 322.6 233.3L322.6 233.3Q322.6 233.0 322.8 232.7Q323.1 232.4 323.5 232.4L323.5 232.4Q323.8 232.4 324.1 232.7Q324.4 233.0 324.4 233.3L324.4 233.3Q324.4 233.6 324.3 233.8Q324.1 234.0 323.9 234.1Q323.7 234.2 323.5 234.2ZM335.2 228.8L335.2 228.8Q335.2 227.4 335.5 226.3Q335.8 225.1 336.5 224.0Q337.1 223.0 337.9 222.2L337.9 222.2L338.8 222.6Q338.0 223.4 337.4 224.4Q336.8 225.4 336.5 226.5Q336.2 227.6 336.2 228.8L336.2 228.8Q336.2 230.1 336.5 231.2Q336.8 232.3 337.4 233.2Q338.0 234.2 338.8 235.0L338.8 235.0L337.9 235.5Q337.1 234.6 336.5 233.6Q335.8 232.6 335.5 231.4Q335.2 230.2 335.2 228.8ZM344.1 225.6L341.1 234.1L339.8 234.1L343.5 224.0L344.8 224.0L348.5 234.1L347.2 234.1L344.2 225.6L344.1 225.6ZM341.6 231.3L341.6 230.2L346.8 230.2L346.8 231.3L341.6 231.3ZM350.0 224.0L351.1 224.0L351.1 234.1L350.0 234.1L350.0 224.0ZM358.7 228.2L358.7 228.2L357.6 228.5Q357.5 228.2 357.4 228.0Q357.2 227.7 356.8 227.6Q356.5 227.4 356.0 227.4L356.0 227.4Q355.3 227.4 354.8 227.7Q354.4 228.1 354.4 228.5L354.4 228.5Q354.4 229.0 354.7 229.2Q355.0 229.5 355.7 229.7L355.7 229.7L356.8 229.9Q357.8 230.2 358.3 230.7Q358.8 231.2 358.8 232.0L358.8 232.0Q358.8 232.7 358.5 233.2Q358.1 233.7 357.4 234.0Q356.7 234.3 355.9 234.3L355.9 234.3Q354.7 234.3 353.9 233.8Q353.2 233.3 353.0 232.3L353.0 232.3L354.1 232.0Q354.2 232.6 354.7 233.0Q355.1 233.3 355.8 233.3L355.8 233.3Q356.7 233.3 357.1 232.9Q357.6 232.6 357.6 232.1L357.6 232.1Q357.6 231.7 357.3 231.4Q357.1 231.1 356.5 231.0L356.5 231.0L355.2 230.7Q354.2 230.4 353.7 229.9Q353.2 229.4 353.2 228.6L353.2 228.6Q353.2 228.0 353.6 227.5Q353.9 227.0 354.6 226.7Q355.2 226.4 356.0 226.4L356.0 226.4Q357.1 226.4 357.8 226.9Q358.4 227.4 358.7 228.2ZM360.0 226.5L363.9 226.5L363.9 227.5L360.0 227.5L360.0 226.5ZM361.1 232.3L361.1 224.7L362.3 224.7L362.3 232.0Q362.3 232.4 362.4 232.7Q362.6 232.9 362.8 233.0Q363.1 233.1 363.3 233.1L363.3 233.1Q363.5 233.1 363.6 233.1Q363.8 233.1 363.8 233.0L363.8 233.0L364.1 234.1Q363.9 234.1 363.7 234.2Q363.5 234.2 363.2 234.2L363.2 234.2Q362.7 234.2 362.2 234.0Q361.7 233.8 361.4 233.4Q361.1 232.9 361.1 232.3L361.1 232.3ZM366.9 234.1L365.7 234.1L365.7 226.5L366.8 226.5L366.8 227.7L366.9 227.7Q367.1 227.1 367.7 226.7Q368.2 226.4 368.9 226.4L368.9 226.4Q369.0 226.4 369.2 226.4Q369.4 226.4 369.5 226.4L369.5 226.4L369.5 227.6Q369.5 227.6 369.2 227.5Q369.0 227.5 368.8 227.5L368.8 227.5Q368.2 227.5 367.8 227.7Q367.4 228.0 367.1 228.4Q366.9 228.8 366.9 229.3L366.9 229.3L366.9 234.1ZM373.8 234.3L373.8 234.3Q372.7 234.3 372.0 233.8Q371.2 233.3 370.7 232.4Q370.3 231.5 370.3 230.4L370.3 230.4Q370.3 229.2 370.7 228.3Q371.2 227.4 372.0 226.9Q372.7 226.4 373.8 226.4L373.8 226.4Q374.8 226.4 375.6 226.9Q376.4 227.4 376.8 228.3Q377.2 229.2 377.2 230.4L377.2 230.4Q377.2 231.5 376.8 232.4Q376.4 233.3 375.6 233.8Q374.8 234.3 373.8 234.3ZM373.8 233.2L373.8 233.2Q374.6 233.2 375.1 232.8Q375.6 232.4 375.8 231.8Q376.1 231.1 376.1 230.4L376.1 230.4Q376.1 229.6 375.8 228.9Q375.6 228.3 375.1 227.9Q374.6 227.5 373.8 227.5L373.8 227.5Q373.0 227.5 372.5 227.9Q372.0 228.3 371.7 228.9Q371.5 229.6 371.5 230.4L371.5 230.4Q371.5 231.1 371.7 231.8Q372.0 232.4 372.5 232.8Q373.0 233.2 373.8 233.2ZM382.2 234.3L382.2 234.3Q381.1 234.3 380.3 233.8Q379.5 233.3 379.1 232.4Q378.7 231.6 378.7 230.4L378.7 230.4Q378.7 229.2 379.1 228.3Q379.5 227.4 380.3 226.9Q381.1 226.4 382.1 226.4L382.1 226.4Q382.7 226.4 383.3 226.6Q383.9 226.8 384.3 227.2Q384.8 227.7 385.1 228.4Q385.4 229.2 385.4 230.2L385.4 230.2L385.4 230.7L379.5 230.7L379.5 229.7L384.2 229.7Q384.2 229.1 383.9 228.5Q383.7 228.0 383.2 227.7Q382.7 227.5 382.1 227.5L382.1 227.5Q381.4 227.5 380.9 227.8Q380.4 228.1 380.1 228.7Q379.8 229.3 379.8 229.9L379.8 229.9L379.8 230.6Q379.8 231.4 380.1 232.0Q380.4 232.6 381.0 232.9Q381.5 233.2 382.2 233.2L382.2 233.2Q382.7 233.2 383.1 233.1Q383.4 233.0 383.7 232.7Q384.0 232.4 384.1 232.0L384.1 232.0L385.3 232.4Q385.1 232.9 384.7 233.4Q384.2 233.8 383.6 234.1Q383.0 234.3 382.2 234.3ZM388.3 234.1L387.2 234.1L387.2 226.5L388.3 226.5L388.3 227.7L388.4 227.7Q388.6 227.1 389.2 226.7Q389.7 226.4 390.5 226.4L390.5 226.4Q391.2 226.4 391.7 226.7Q392.2 227.1 392.5 227.7L392.5 227.7L392.6 227.7Q392.9 227.1 393.5 226.8Q394.1 226.4 394.9 226.4L394.9 226.4Q395.9 226.4 396.5 227.0Q397.2 227.7 397.2 229.0L397.2 229.0L397.2 234.1L396.0 234.1L396.0 229.0Q396.0 228.2 395.6 227.8Q395.1 227.5 394.5 227.5L394.5 227.5Q393.7 227.5 393.2 227.9Q392.8 228.4 392.8 229.2L392.8 229.2L392.8 234.1L391.6 234.1L391.6 228.9Q391.6 228.3 391.2 227.9Q390.7 227.5 390.1 227.5L390.1 227.5Q389.6 227.5 389.2 227.7Q388.8 227.9 388.6 228.4Q388.3 228.8 388.3 229.4L388.3 229.4L388.3 234.1ZM402.5 234.3L402.5 234.3Q401.4 234.3 400.6 233.8Q399.8 233.3 399.4 232.4Q399.0 231.6 399.0 230.4L399.0 230.4Q399.0 229.2 399.4 228.3Q399.8 227.4 400.6 226.9Q401.4 226.4 402.4 226.4L402.4 226.4Q403.0 226.4 403.6 226.6Q404.2 226.8 404.7 227.2Q405.1 227.7 405.4 228.4Q405.7 229.2 405.7 230.2L405.7 230.2L405.7 230.7L399.8 230.7L399.8 229.7L404.5 229.7Q404.5 229.1 404.3 228.5Q404.0 228.0 403.5 227.7Q403.1 227.5 402.4 227.5L402.4 227.5Q401.7 227.5 401.2 227.8Q400.7 228.1 400.4 228.7Q400.2 229.3 400.2 229.9L400.2 229.9L400.2 230.6Q400.2 231.4 400.5 232.0Q400.8 232.6 401.3 232.9Q401.8 233.2 402.5 233.2L402.5 233.2Q403.0 233.2 403.4 233.1Q403.8 233.0 404.0 232.7Q404.3 232.4 404.5 232.0L404.5 232.0L405.6 232.4Q405.4 232.9 405.0 233.4Q404.6 233.8 403.9 234.1Q403.3 234.3 402.5 234.3ZM408.7 234.1L407.5 234.1L407.5 226.5L408.6 226.5L408.6 227.7L408.7 227.7Q408.9 227.1 409.5 226.7Q410.0 226.4 410.7 226.4L410.7 226.4Q410.8 226.4 411.0 226.4Q411.2 226.4 411.3 226.4L411.3 226.4L411.3 227.6Q411.3 227.6 411.0 227.5Q410.8 227.5 410.6 227.5L410.6 227.5Q410.0 227.5 409.6 227.7Q409.2 228.0 408.9 228.4Q408.7 228.8 408.7 229.3L408.7 229.3L408.7 234.1ZM413.9 234.1L412.7 234.1L412.7 226.5L413.9 226.5L413.9 234.1ZM413.3 225.2L413.3 225.2Q413.0 225.2 412.7 225.0Q412.5 224.8 412.5 224.4L412.5 224.4Q412.5 224.1 412.7 223.9Q413.0 223.6 413.3 223.6L413.3 223.6Q413.6 223.6 413.9 223.9Q414.1 224.1 414.1 224.4L414.1 224.4Q414.1 224.8 413.9 225.0Q413.6 225.2 413.3 225.2ZM418.3 234.3L418.3 234.3Q417.6 234.3 417.0 234.0Q416.4 233.8 416.0 233.2Q415.7 232.7 415.7 232.0L415.7 232.0Q415.7 231.3 415.9 230.9Q416.2 230.5 416.6 230.3Q417.1 230.0 417.6 229.9Q418.1 229.8 418.6 229.7L418.6 229.7Q419.3 229.6 419.8 229.6Q420.2 229.5 420.4 229.4Q420.6 229.3 420.6 229.0L420.6 229.0L420.6 229.0Q420.6 228.3 420.2 227.8Q419.8 227.4 419.0 227.4L419.0 227.4Q418.2 227.4 417.7 227.8Q417.2 228.2 417.0 228.6L417.0 228.6L415.9 228.2Q416.2 227.5 416.7 227.1Q417.2 226.7 417.8 226.6Q418.4 226.4 419.0 226.4L419.0 226.4Q419.3 226.4 419.8 226.5Q420.3 226.6 420.7 226.8Q421.2 227.1 421.5 227.7Q421.8 228.2 421.8 229.1L421.8 229.1L421.8 234.1L420.6 234.1L420.6 233.1L420.5 233.1Q420.4 233.4 420.1 233.6Q419.9 233.9 419.4 234.1Q418.9 234.3 418.3 234.3ZM418.5 233.3L418.5 233.3Q419.2 233.3 419.6 233.0Q420.1 232.7 420.4 232.3Q420.6 231.9 420.6 231.4L420.6 231.4L420.6 230.3Q420.5 230.4 420.3 230.5Q420.0 230.5 419.7 230.6Q419.4 230.6 419.1 230.7Q418.8 230.7 418.6 230.7L418.6 230.7Q418.1 230.8 417.7 230.9Q417.3 231.1 417.1 231.3Q416.8 231.6 416.8 232.0L416.8 232.0Q416.8 232.6 417.3 233.0Q417.8 233.3 418.5 233.3Z M252.5 257.9L251.2 257.9L251.2 247.7L254.7 247.7Q255.9 247.7 256.6 248.1Q257.4 248.5 257.8 249.2Q258.1 249.9 258.1 250.8L258.1 250.8Q258.1 251.7 257.8 252.4Q257.4 253.1 256.6 253.5Q255.9 253.9 254.7 253.9L254.7 253.9L251.9 253.9L251.9 252.8L254.7 252.8Q255.5 252.8 256.0 252.6Q256.5 252.3 256.7 251.9Q256.9 251.4 256.9 250.8L256.9 250.8Q256.9 250.2 256.7 249.8Q256.5 249.3 256.0 249.1Q255.5 248.8 254.6 248.8L254.6 248.8L252.5 248.8L252.5 257.9ZM254.6 253.3L256.0 253.3L258.5 257.9L257.1 257.9L254.6 253.3ZM263.1 258.1L263.1 258.1Q262.0 258.1 261.2 257.6Q260.4 257.1 260.0 256.2Q259.6 255.3 259.6 254.1L259.6 254.1Q259.6 253.0 260.0 252.1Q260.4 251.2 261.2 250.7Q262.0 250.2 263.0 250.2L263.0 250.2Q263.6 250.2 264.2 250.4Q264.8 250.6 265.3 251.0Q265.7 251.4 266.0 252.2Q266.3 252.9 266.3 254.0L266.3 254.0L266.3 254.5L260.4 254.5L260.4 253.5L265.1 253.5Q265.1 252.8 264.9 252.3Q264.6 251.8 264.1 251.5Q263.7 251.2 263.0 251.2L263.0 251.2Q262.3 251.2 261.8 251.6Q261.3 251.9 261.0 252.5Q260.8 253.0 260.8 253.6L260.8 253.6L260.8 254.3Q260.8 255.2 261.1 255.8Q261.4 256.4 261.9 256.7Q262.4 257.0 263.1 257.0L263.1 257.0Q263.6 257.0 264.0 256.9Q264.4 256.7 264.6 256.5Q264.9 256.2 265.1 255.8L265.1 255.8L266.2 256.1Q266.0 256.7 265.6 257.1Q265.2 257.6 264.5 257.8Q263.9 258.1 263.1 258.1ZM271.2 258.1L271.2 258.1Q270.1 258.1 269.3 257.5Q268.6 257.0 268.2 256.1Q267.7 255.3 267.7 254.1L267.7 254.1Q267.7 253.0 268.2 252.1Q268.6 251.2 269.4 250.7Q270.1 250.2 271.2 250.2L271.2 250.2Q272.0 250.2 272.6 250.5Q273.3 250.8 273.7 251.3Q274.1 251.8 274.2 252.5L274.2 252.5L273.0 252.5Q272.9 252.0 272.4 251.6Q272.0 251.2 271.2 251.2L271.2 251.2Q270.5 251.2 270.0 251.6Q269.5 251.9 269.2 252.6Q268.9 253.2 268.9 254.1L268.9 254.1Q268.9 255.0 269.2 255.6Q269.5 256.3 270.0 256.6Q270.5 257.0 271.2 257.0L271.2 257.0Q271.7 257.0 272.0 256.8Q272.4 256.7 272.7 256.4Q272.9 256.1 273.0 255.7L273.0 255.7L274.2 255.7Q274.1 256.3 273.7 256.9Q273.3 257.4 272.7 257.7Q272.0 258.1 271.2 258.1ZM279.0 258.1L279.0 258.1Q278.0 258.1 277.2 257.6Q276.4 257.1 276.0 256.2Q275.6 255.3 275.6 254.1L275.6 254.1Q275.6 252.9 276.0 252.0Q276.4 251.1 277.2 250.6Q278.0 250.2 279.0 250.2L279.0 250.2Q280.0 250.2 280.8 250.6Q281.6 251.1 282.0 252.0Q282.5 252.9 282.5 254.1L282.5 254.1Q282.5 255.3 282.0 256.2Q281.6 257.1 280.8 257.6Q280.0 258.1 279.0 258.1ZM279.0 257.0L279.0 257.0Q279.8 257.0 280.3 256.6Q280.8 256.2 281.1 255.5Q281.3 254.9 281.3 254.1L281.3 254.1Q281.3 253.3 281.1 252.7Q280.8 252.0 280.3 251.6Q279.8 251.2 279.0 251.2L279.0 251.2Q278.2 251.2 277.7 251.6Q277.2 252.0 277.0 252.7Q276.7 253.3 276.7 254.1L276.7 254.1Q276.7 254.9 277.0 255.5Q277.2 256.2 277.7 256.6Q278.2 257.0 279.0 257.0ZM285.4 257.9L284.3 257.9L284.3 250.3L285.4 250.3L285.4 251.4L285.5 251.4Q285.7 250.8 286.2 250.5Q286.8 250.1 287.5 250.1L287.5 250.1Q287.6 250.1 287.8 250.1Q288.0 250.1 288.1 250.2L288.1 250.2L288.1 251.4Q288.0 251.3 287.8 251.3Q287.6 251.3 287.4 251.3L287.4 251.3Q286.8 251.3 286.4 251.5Q285.9 251.7 285.7 252.1Q285.4 252.5 285.4 253.1L285.4 253.1L285.4 257.9ZM292.1 258.1L292.1 258.1Q291.2 258.1 290.4 257.6Q289.7 257.1 289.3 256.2Q288.9 255.3 288.9 254.1L288.9 254.1Q288.9 252.9 289.3 252.0Q289.7 251.1 290.4 250.6Q291.2 250.2 292.1 250.2L292.1 250.2Q292.9 250.2 293.3 250.4Q293.8 250.6 294.0 251.0Q294.2 251.3 294.3 251.5L294.3 251.5L294.4 251.5L294.4 247.7L295.6 247.7L295.6 257.9L294.5 257.9L294.5 256.7L294.3 256.7Q294.2 256.9 294.0 257.2Q293.7 257.6 293.3 257.8Q292.9 258.1 292.1 258.1ZM292.3 257.0L292.3 257.0Q293.0 257.0 293.5 256.6Q294.0 256.3 294.2 255.6Q294.5 254.9 294.5 254.1L294.5 254.1Q294.5 253.2 294.2 252.6Q294.0 251.9 293.5 251.6Q293.0 251.2 292.3 251.2L292.3 251.2Q291.5 251.2 291.0 251.6Q290.5 252.0 290.3 252.6Q290.1 253.3 290.1 254.1L290.1 254.1Q290.1 254.9 290.3 255.6Q290.6 256.2 291.0 256.6Q291.5 257.0 292.3 257.0ZM303.3 252.0L303.3 252.0L302.3 252.3Q302.2 252.0 302.0 251.8Q301.8 251.5 301.5 251.3Q301.1 251.2 300.6 251.2L300.6 251.2Q299.9 251.2 299.5 251.5Q299 251.8 299 252.3L299 252.3Q299 252.7 299.3 253.0Q299.6 253.2 300.3 253.4L300.3 253.4L301.4 253.7Q302.5 253.9 303.0 254.5Q303.5 255.0 303.5 255.8L303.5 255.8Q303.5 256.4 303.1 256.9Q302.7 257.5 302.1 257.8Q301.4 258.1 300.5 258.1L300.5 258.1Q299.3 258.1 298.6 257.5Q297.8 257.0 297.6 256.1L297.6 256.1L298.7 255.8Q298.9 256.4 299.3 256.7Q299.8 257.0 300.5 257.0L300.5 257.0Q301.3 257.0 301.8 256.7Q302.3 256.3 302.3 255.8L302.3 255.8Q302.3 255.4 302.0 255.2Q301.7 254.9 301.1 254.8L301.1 254.8L299.9 254.5Q298.8 254.2 298.3 253.7Q297.8 253.2 297.8 252.4L297.8 252.4Q297.8 251.7 298.2 251.2Q298.6 250.7 299.2 250.4Q299.8 250.2 300.6 250.2L300.6 250.2Q301.8 250.2 302.4 250.7Q303.1 251.2 303.3 252.0ZM308.4 252.6L308.4 252.6Q308.4 253.9 308.1 255.1Q307.8 256.3 307.1 257.3Q306.5 258.4 305.7 259.2L305.7 259.2L304.8 258.8Q305.6 258.0 306.2 257.0Q306.8 256.0 307.1 254.9Q307.4 253.8 307.4 252.6L307.4 252.6Q307.4 251.3 307.1 250.2Q306.8 249.1 306.2 248.1Q305.6 247.2 304.8 246.3L304.8 246.3L305.7 245.9Q306.5 246.8 307.1 247.8Q307.8 248.8 308.1 250.0Q308.4 251.2 308.4 252.6Z "/><defs><clipPath id="satori_bc-id-0-2"><rect x="451" y="43" width="62" height="30"/></clipPath></defs><mask id="satori_om-id-0-2"><rect x="451" y="43" width="62" height="28" fill="#fff"/><path width="62" height="30" fill="none" stroke="#000" stroke-width="4" d="M513,73 A0,0 0 0 1 513,73 h-62 A0,0 0 0 1 451,73"/></mask><path width="62" height="30" clip-path="url(#satori_bc-id-0-2)" fill="none" stroke="rgb(209 213 219)" stroke-width="4" d="M513,73 A0,0 0 0 1 513,73 h-62 A0,0 0 0 1 451,73"/><clipPath id="satori_cp-id-0-2-1"><rect x="495" y="49" width="18" height="18"/></clipPath><mask id="satori_om-id-0-2-1"><rect x="495" y="49" width="18" height="18" fill="#fff"/></mask><image x="495" y="49" width="18" height="18" href="data:image/svg+xml;utf8,%3Csvg  xmlns=%22http://www.w3.org/2000/svg%22 fill=%22%23000000%22 width=%22NaN%22 height=%22NaN%22 viewBox=%220 0 24 24%22%3E%3Cpath d=%22M0 0h24v24H0z%22 fill=%22none%22%3E%3C/path%3E%3Cpath d=%22M16.59 8.59L12 13.17 7.41 8.59 6 10l6 6 6-6z%22%3E%3C/path%3E%3C/svg%3E" preserveAspectRatio="none" clip-path="url(#satori_cp-id-0-2-1)" mask="url(#satori_om-id-0-2-1)"/><mask id="satori_om-id-0-2-1-0"><rect x="495" y="49" width="0" height="18" fill="#fff"/></mask><mask id="satori_om-id-0-2-1-1"><rect x="495" y="49" width="0" height="18" fill="#fff"/></mask><mask id="satori_om-id-0-3"><rect x="521" y="40" width="26" height="36" fill="#fff"/></mask><path fill="black" d="M523.5 64.2L523.5 64.2Q523.0 64.2 522.7 63.8Q522.3 63.5 522.3 63.0L522.3 63.0Q522.3 62.6 522.7 62.2Q523.0 61.9 523.5 61.9L523.5 61.9Q524.0 61.9 524.3 62.2Q524.6 62.6 524.6 63.0L524.6 63.0Q524.6 63.3 524.5 63.6Q524.3 63.9 524.1 64.0Q523.8 64.2 523.5 64.2ZM527.3 51.0L528.8 51.0L528.8 64.1L527.3 64.1L527.3 51.0ZM533.1 64.1L531.6 64.1L531.6 54.3L533.1 54.3L533.1 55.7L533.2 55.7Q533.4 55.0 534.1 54.6Q534.8 54.1 535.7 54.1L535.7 54.1Q535.9 54.1 536.1 54.1Q536.4 54.1 536.5 54.1L536.5 54.1L536.5 55.7Q536.4 55.6 536.2 55.6Q535.9 55.6 535.6 55.6L535.6 55.6Q534.9 55.6 534.3 55.9Q533.8 56.2 533.4 56.7Q533.1 57.2 533.1 57.9L533.1 57.9L533.1 64.1ZM542.0 64.3L542.0 64.3Q540.6 64.3 539.6 63.6Q538.6 63.0 538.1 61.8Q537.5 60.7 537.5 59.2L537.5 59.2Q537.5 57.7 538.1 56.6Q538.6 55.4 539.6 54.8Q540.6 54.1 542.0 54.1L542.0 54.1Q543.0 54.1 543.8 54.5Q544.7 54.9 545.2 55.6Q545.7 56.3 545.9 57.2L545.9 57.2L544.3 57.2Q544.2 56.5 543.6 56.0Q543.0 55.5 542.0 55.5L542.0 55.5Q541.1 55.5 540.4 55.9Q539.8 56.4 539.4 57.2Q539.1 58.1 539.1 59.2L539.1 59.2Q539.1 60.3 539.4 61.1Q539.8 62.0 540.4 62.5Q541.1 62.9 542.0 62.9L542.0 62.9Q542.6 62.9 543.1 62.7Q543.5 62.5 543.9 62.1Q544.2 61.7 544.3 61.2L544.3 61.2L545.9 61.2Q545.7 62.1 545.2 62.8Q544.7 63.5 543.9 63.9Q543.1 64.3 542.0 64.3Z "/></svg>